<?xml version="1.0" encoding="utf-8"?>
<!-- Generator: Adobe Illustrator 16.0.0, SVG Export Plug-In . SVG Version: 6.00 Build 0)  -->
<!DOCTYPE svg PUBLIC "-//W3C//DTD SVG 1.1//EN" "http://www.w3.org/Graphics/SVG/1.1/DTD/svg11.dtd">
<svg version="1.1" id="Layer_1" xmlns="http://www.w3.org/2000/svg" xmlns:xlink="http://www.w3.org/1999/xlink" x="0px" y="0px"
	 width="2560px" height="1440px" viewBox="0 0 2560 1440" enable-background="new 0 0 2560 1440" xml:space="preserve">
<path fill="#EAA223" d="M1847.947,767.322c1.563-16.854,17.537-58.818,17.537-76.076c0-37.598-19.282-29.813-27.043-89.915
	c-8.237-63.875,4.823-54.901-6.263-83.203c-10.616-27.068-22.797-11.88-55.905-70.02c-28.887-50.729-14.904-56.452-30.902-76.879
	c-16.559-21.159-36.82-17.538-66.662-47.342c-39.923-39.87-28.911-52.761-52.901-69.764c-21.282-15.098-52.275-6.514-89.104-26.681
	c-27.266-14.937-45.281-43.252-74.67-52.605c-26.417-8.407-32.293,7.012-84.281-2.473c-23.907-4.362-55.255-30.845-80.216-30.845
	c-19.645,0-54.271,23.85-73.394,25.903c-68.822,7.415-66.139-14.172-98.511-5.74c-32.368,8.439-21.163,29.813-88.368,55.576
	c-47.708,18.295-56.789,4.037-78.339,17.196c-27.035,16.518-13.151,32.442-61.37,80.661c-27.706,27.706-49.799,14.085-68.386,35.952
	c-18.435,21.673-2.634,31.558-34.006,83.409c-28.199,46.614-48.103,35.022-58.93,60.374c-10.439,24.438,9.646,45.589-10.081,106.481
	c-14.698,45.383-28.957,35.606-32.006,60.103c-2.79,22.455,22.797,30.685,23.673,83.931c0.539,32.623-16.678,46.705-15.78,74.094
	c0.991,30.385,28.973,60.521,42.293,87.195c16.451,32.936-4.021,55.822,10.312,81.977c13.316,24.286,41.207,29.939,71.423,69.459
	c31.298,40.943,18.776,54.721,39.923,75.031c17.896,17.193,28.06,4.387,75.5,38.524c24.188,17.406,38.936,49.362,65.658,63.188
	c20.517,10.6,48.223-3.514,103.457,19.291c38.334,15.809,32.458,29.002,64.974,35.059c34.541,6.443,38.965-19.282,100.869-14.023
	c31.039,2.633,49.186,25.068,69.999,22.797c30.244-3.293,53.806-32.566,82.421-40.334c26.641-7.227,67.139,2.904,92.059-7.885
	c25.464-11.02,40.655-37.66,63.913-52.21c55.329-34.599,62.999-14.016,85.82-33.718c19.143-16.533,0-35.075,41.149-73.089
	c53.609-49.535,55.526-27.389,72.134-54.045c13.514-21.661-1.744-36.673,20.081-89.047c22.476-53.872,37.001-39.092,44.804-70.645
	C1855.379,850.535,1845.388,795.107,1847.947,767.322z M1269.148,1112.416c-217.095,0-393.089-175.986-393.089-393.073
	c0-217.099,175.994-393.089,393.089-393.089c217.09,0,393.085,175.99,393.085,393.089
	C1662.233,936.43,1486.238,1112.416,1269.148,1112.416z"/>
<g>
	<path fill="none" stroke="#FFFFFF" stroke-width="8" stroke-miterlimit="10" d="M1855.28,692.88
		c0,16.945-15.687,58.147-17.217,74.698c-2.519,27.266,7.291,81.689,0.863,107.662c-7.67,30.977-21.932,16.477-43.979,69.369
		c-21.438,51.412-6.461,66.143-19.727,87.426c-16.304,26.162-18.196,4.419-70.826,53.049c-40.4,37.33-21.611,55.535-40.4,71.772
		c-22.401,19.341-29.94-0.864-84.248,33.101c-22.847,14.278-37.767,40.434-62.753,51.247c-24.467,10.6-64.226,0.658-90.388,7.753
		c-28.089,7.62-51.23,36.359-80.916,39.593c-20.451,2.23-38.244-19.792-68.735-22.376c-60.777-5.169-65.118,20.088-99.025,13.775
		c-31.932-5.949-26.162-18.912-63.793-34.441c-54.234-22.377-81.435-8.518-101.576-18.928
		c-26.237-13.571-40.718-44.96-64.465-62.045c-46.576-33.512-56.555-20.938-74.122-37.816
		c-20.759-19.949-8.472-33.479-39.202-73.674c-29.664-38.803-57.041-44.35-70.122-68.184c-14.073-25.677,6.028-48.152-10.123-80.496
		c-13.077-26.187-40.548-55.765-41.523-85.614c-0.881-26.887,16.023-40.704,15.497-72.735c-0.86-52.28-25.986-60.361-23.245-82.405
		c2.995-24.052,16.99-14.452,31.426-59.012c19.36-59.777-0.351-80.545,9.896-104.539c10.625-24.887,30.167-13.513,57.86-59.275
		c30.8-50.905,15.287-60.608,33.38-81.891c18.254-21.472,39.943-8.094,67.143-35.293c47.347-47.346,33.71-62.983,60.255-79.2
		c21.159-12.917,30.072,1.082,76.916-16.879c65.979-25.294,54.979-46.28,86.763-54.563c31.779-8.283,29.138,12.913,96.713,5.633
		c18.768-2.021,52.773-25.43,72.064-25.43c24.5,0,55.279,25.998,78.742,30.286c51.05,9.308,56.827-5.831,82.76,2.424
		c28.846,9.18,46.531,36.985,73.319,51.646c36.146,19.797,66.563,11.37,87.475,26.196c23.545,16.69,12.739,29.352,51.93,68.5
		c29.307,29.261,49.198,25.702,65.452,46.474c15.711,20.056,1.983,25.677,30.343,75.484c32.5,57.082,44.475,42.169,54.877,68.744
		c10.888,27.792-1.926,18.978,6.164,81.685C1836.352,663.611,1855.28,655.969,1855.28,692.88z"/>
	<path fill="#EAA223" d="M1838.063,767.578c1.53-16.551,17.217-57.753,17.217-74.698c0-36.911-18.929-29.269-26.55-88.281
		c-8.09-62.707,4.724-53.893-6.164-81.685c-10.402-26.574-22.377-11.662-54.877-68.744c-28.359-49.807-14.632-55.428-30.343-75.484
		c-16.254-20.772-36.146-17.213-65.452-46.474c-39.19-39.149-28.385-51.811-51.93-68.5c-20.912-14.826-51.329-6.399-87.475-26.196
		c-26.788-14.661-44.474-42.466-73.319-51.646c-25.933-8.255-31.71,6.884-82.76-2.424c-23.463-4.288-54.242-30.286-78.742-30.286
		c-19.291,0-53.297,23.41-72.064,25.43c-67.575,7.279-64.934-13.917-96.713-5.633c-31.783,8.283-20.784,29.269-86.763,54.563
		c-46.844,17.961-55.757,3.963-76.916,16.879c-26.545,16.217-12.908,31.854-60.255,79.2c-27.199,27.2-48.889,13.822-67.143,35.293
		c-18.093,21.282-2.58,30.985-33.38,81.891c-27.693,45.762-47.235,34.389-57.86,59.275c-10.246,23.994,9.465,44.762-9.896,104.539
		c-14.436,44.561-28.431,34.96-31.426,59.012c-2.741,22.043,22.385,30.125,23.245,82.405c0.526,32.031-16.378,45.849-15.497,72.735
		c0.976,29.85,28.446,59.428,41.523,85.614c16.151,32.344-3.95,54.819,10.123,80.496c13.081,23.834,40.458,29.381,70.122,68.184
		c30.73,40.195,18.443,53.725,39.202,73.674c17.567,16.879,27.546,4.305,74.122,37.816c23.747,17.085,38.228,48.474,64.465,62.045
		c20.142,10.41,47.342-3.449,101.576,18.928c37.631,15.529,31.861,28.492,63.793,34.441c33.907,6.313,38.248-18.944,99.025-13.775
		c30.491,2.584,48.284,24.606,68.735,22.376c29.686-3.233,52.827-31.973,80.916-39.593c26.162-7.095,65.921,2.847,90.388-7.753
		c24.986-10.813,39.906-36.969,62.753-51.247c54.308-33.965,61.847-13.76,84.248-33.101c18.789-16.237,0-34.442,40.4-71.772
		c52.63-48.63,54.522-26.887,70.826-53.049c13.266-21.283-1.712-36.014,19.727-87.426c22.048-52.893,36.31-38.393,43.979-69.369
		C1845.354,849.268,1835.545,794.844,1838.063,767.578z M1269.148,1112.416c-217.095,0-393.089-175.986-393.089-393.073
		c0-217.099,175.994-393.089,393.089-393.089c217.09,0,393.085,175.99,393.085,393.089
		C1662.233,936.43,1486.238,1112.416,1269.148,1112.416z"/>
</g>
<path fill="none" stroke="#FCC727" stroke-width="110" stroke-miterlimit="10" d="M1662.233,719.343
	c0,217.086-175.995,393.073-393.085,393.073c-217.095,0-393.089-175.986-393.089-393.073c0-217.099,175.994-393.089,393.089-393.089
	C1486.238,326.254,1662.233,502.245,1662.233,719.343z"/>
<path fill="none" stroke="#FFFFFF" stroke-width="11" stroke-miterlimit="10" d="M1622.714,719.82
	c0,195.27-158.293,353.561-353.565,353.561c-195.269,0-353.562-158.291-353.562-353.561c0-195.273,158.293-353.565,353.562-353.565
	C1464.421,366.255,1622.714,524.547,1622.714,719.82z"/>
</svg>
