<?xml version="1.0" encoding="utf-8"?>
<!-- Generator: Adobe Illustrator 19.1.1, SVG Export Plug-In . SVG Version: 6.00 Build 0)  -->
<svg version="1.1" id="Layer_1" xmlns="http://www.w3.org/2000/svg" xmlns:xlink="http://www.w3.org/1999/xlink" x="0px" y="0px"
	 viewBox="0 0 758 331" style="enable-background:new 0 0 758 331;" xml:space="preserve">
<style type="text/css">
	.st0{fill:#FFFFFF;}
	.st1{fill:url(#SVGID_1_);}
	.st2{fill:#FFFFFF;stroke:#FFFFFF;stroke-width:0.5;stroke-miterlimit:10;}
	.st3{fill:none;stroke:#4D4D4D;stroke-miterlimit:10;}
</style>
<rect y="0.5" class="st0" width="758.3" height="330.5"/>
<image style="overflow:visible;opacity:0.6;" width="962" height="585" xlink:href="intro-background.jpg"  transform="matrix(0.5649 0 0 0.5658 0 0)">
</image>
<linearGradient id="SVGID_1_" gradientUnits="userSpaceOnUse" x1="137.1819" y1="589.4687" x2="704.3104" y2="589.4687" gradientTransform="matrix(1.0001 -3.000000e-004 -3.000000e-004 -1.0001 54.1616 755.1466)">
	<stop  offset="0" style="stop-color:#FFFFFF;stop-opacity:0"/>
	<stop  offset="0.5911" style="stop-color:#6B83B5;stop-opacity:0.8"/>
	<stop  offset="0.6841" style="stop-color:#2B4E95"/>
	<stop  offset="0.703" style="stop-color:#1D428E"/>
</linearGradient>
<polygon class="st1" points="191.2,0 191.2,331 758.3,331 758.3,0 "/>
<path class="st2" d="M679.9,89.9c-4.6-10.1-19.1-19.7-19.1-19.7c-6.8-6-24.8-11.5-24.8-11.5c-13.7-4.6-31.4-2.7-31.4-2.7
	c-11.5,0.5-21.6,3-21.6,3c-17.7,4.6-33.6,13.7-33.6,13.7c-19.4,11.5-37.4,31.7-37.4,31.7c-0.8-0.5-5.5-2.2-5.5-2.2
	c-15.3-4.9-27,0-33.3,6c-6.6,6-10.1,15.3-10.1,15.3c1.4-0.3,15.6-2.2,22.4-2.2c6.8-0.3,18.6,6,25.4,16.1c6.8,10.1,0.8,16.7,0.8,16.7
	c-6,7.9-23.5,4.4-23.5,4.4c-23.8-2.7-40.7-20.8-40.7-20.8c-12-12.6-10.9-38.2-10.9-38.2c0.8-23.2,15.3-38.5,15.3-38.5
	c12-12,25.7-13.9,31.1-14.7c5.2-0.8,15.6,1.1,15.6,1.1c5.5,1.6,9-1.4,10.1-2.2c1.1-0.8,3.3-4.4,3-6.3c-0.5-1.9-6.8-3-6.8-3
	c-17.2-2.5-36.9,0.8-36.9,0.8c-27.6,3.8-64.4,27-64.4,27c-24.8,13.9-44.8,47-44.8,47c-9.3,15.3-18.3,39.9-18.3,39.9
	c14.2,34.7,28.1,46.1,28.1,46.1c29.8,30,63.1,31.7,63.1,31.7c25.9,3.3,46.1-1.1,46.1-1.1c22.9-3.5,39-14.2,39-14.2
	c14.7-7.9,21.8-19.1,21.8-19.1c0,1.1,0,14.7,0,14.7c1.6,26.8,14.7,38.2,14.7,38.2c16.9,20.5,45.3,12.3,45.3,12.3
	c12.3-1.6,31.7-11.5,31.7-11.5c12.6-6,24-17.5,24-17.5c8.2-7.9,15-17.2,23.8-32.5c8.7-15.6,12.3-33.9,12.3-33.9
	c1.1-7.4,2.2-22.9,2.2-22.9C692.4,109.3,679.9,89.9,679.9,89.9z M547.4,153.2C547.4,153.2,547.2,153.5,547.4,153.2
	C547.2,153.5,547.2,153.5,547.4,153.2c0.5-2.2-3.3-16.1-8.2-25.7c-5.2-10.1-17.7-19.1-17.7-19.1c4.4-7.9,16.4-15.8,16.4-15.8
	c8.7-7.4,22.7-6.3,22.7-6.3c14.2,2.2,18.8,13.4,18.8,13.4c2.7,6.3-1.6,8.7-1.6,8.7C561.1,119.7,548.5,150.5,547.4,153.2z M595,181.1
	c-9.3,25.1-20.8,25.9-20.8,25.9c-9.3-0.8-11.5-9.3-11.5-9.3c-3.5-9.8,3.5-36.9,3.5-36.9c8.5-25.1,20.5-38.2,20.5-38.2
	c3-3.8,8.2-5.5,8.2-5.5c10.1-1.9,10.6,11.2,10.6,11.2C607,151.9,595,181.1,595,181.1z"/>
<g>
	<path class="st0" d="M516.3,277.2l-1.4,1.6c-1.1-1.1-2.2-1.9-3.5-2.5c-1.4-0.5-2.5-0.8-3.8-0.8c-1.4,0-3,0.3-4.4,1.1
		c-1.4,0.8-2.5,1.9-3.3,3.3c-0.8,1.4-1.1,2.7-1.1,4.4s0.3,3,1.1,4.4c0.8,1.4,1.9,2.5,3.3,3.3s2.7,1.1,4.4,1.1c1.9,0,3.5-0.5,4.9-1.9
		c1.4-1.1,2.2-2.7,2.5-4.6h-6v-1.9h8.2c0,3.3-0.8,5.7-2.7,7.6c-1.6,1.9-4.1,2.7-7.1,2.7c-3.5,0-6.3-1.4-8.5-3.8
		c-1.6-1.9-2.5-4.4-2.5-7.1c0-1.9,0.5-3.8,1.4-5.5c0.8-1.6,2.2-3,3.8-4.1c1.6-0.8,3.3-1.4,5.5-1.4c1.6,0,3.3,0.3,4.6,0.8
		C513.6,274.8,514.9,275.8,516.3,277.2z"/>
	<path class="st0" d="M520.7,279.1h1.9v7.1c0,1.6,0,3,0.3,3.5c0.3,0.8,0.8,1.6,1.4,2.2c0.8,0.5,1.6,0.8,2.7,0.8
		c1.1,0,1.9-0.3,2.5-0.8c0.8-0.5,1.1-1.4,1.4-2.2c0.3-0.5,0.3-1.9,0.3-3.8v-7.1h1.9v7.6c0,2.2-0.3,3.8-0.8,4.6
		c-0.5,1.1-1.1,1.9-2.2,2.5c-0.8,0.5-2.2,0.8-3.5,0.8c-1.4,0-2.5-0.3-3.5-0.8c-0.8-0.5-1.6-1.4-2.2-2.5c-0.5-1.1-0.8-2.7-0.8-4.9
		L520.7,279.1z"/>
	<path class="st0" d="M538.7,273.4h1.9v5.7h3v1.6h-3v13.7h-1.9v-13.7h-2.5v-1.6h2.5V273.4z"/>
	<path class="st0" d="M546.6,272.8c0.5,0,0.8,0.3,1.1,0.5c0.3,0.3,0.5,0.8,0.5,1.1c0,0.5-0.3,0.8-0.5,1.1c-0.3,0.3-0.5,0.5-1.1,0.5
		c-0.3,0-0.8-0.3-1.1-0.5c-0.3-0.3-0.5-0.8-0.5-1.1c0-0.5,0.3-0.8,0.5-1.1C546.1,273.1,546.3,272.8,546.6,272.8z M545.8,279.1h1.9
		v15.3h-1.9V279.1z"/>
	<path class="st0" d="M563.3,289.5l1.6,0.8c-0.5,1.1-1.1,1.9-1.6,2.7c-0.5,0.5-1.4,1.1-2.2,1.4c-0.8,0.3-1.6,0.5-2.7,0.5
		c-2.2,0-4.1-0.8-5.5-2.5c-1.4-1.6-1.9-3.5-1.9-5.5c0-1.9,0.5-3.5,1.6-5.2c1.4-1.9,3.3-3,5.7-3c2.5,0,4.4,1.1,5.7,3
		c1.1,1.4,1.6,3.3,1.6,5.2h-12.8c0,1.9,0.5,3.3,1.6,4.4c1.1,1.1,2.2,1.6,3.8,1.6c0.8,0,1.4,0,2.2-0.3s1.4-0.5,1.6-1.1
		C562.2,291.1,562.7,290.3,563.3,289.5z M563.3,285.1c-0.3-1.1-0.5-1.9-1.1-2.5c-0.5-0.5-1.1-1.1-1.9-1.6c-0.8-0.3-1.6-0.5-2.5-0.5
		c-1.4,0-2.5,0.5-3.5,1.4c-0.8,0.8-1.4,1.6-1.6,3.3H563.3z M558.9,272h2.7l-3.8,4.4h-1.9L558.9,272z"/>
	<path class="st0" d="M567.9,279.1h1.9v2.2c0.5-0.8,1.1-1.6,1.6-1.9c0.5-0.5,1.4-0.5,1.9-0.5c0.5,0,1.1,0.3,1.6,0.5l-0.8,1.6
		c-0.3-0.3-0.8-0.3-1.1-0.3c-0.5,0-1.1,0.3-1.6,0.8c-0.5,0.5-1.1,1.4-1.4,2.5c-0.3,0.8-0.3,2.7-0.3,5.2v5.2h-1.9V279.1z"/>
	<path class="st0" d="M576.1,279.1h1.9v2.2c0.5-0.8,1.1-1.6,1.6-1.9c0.5-0.5,1.4-0.5,1.9-0.5s1.1,0.3,1.6,0.5l-0.8,1.6
		c-0.3-0.3-0.8-0.3-1.1-0.3c-0.5,0-1.1,0.3-1.6,0.8c-0.5,0.5-1.1,1.4-1.4,2.5c-0.3,0.8-0.3,2.7-0.3,5.2v5.2h-1.9V279.1z"/>
	<path class="st0" d="M596.6,289.2l1.6,0.8c-0.5,1.1-1.1,1.9-1.6,2.5s-1.4,1.1-2.2,1.4c-0.8,0.3-1.6,0.5-2.7,0.5
		c-2.2,0-4.1-0.8-5.5-2.5c-1.4-1.6-1.9-3.5-1.9-5.5c0-1.9,0.5-3.5,1.6-5.2c1.4-1.9,3.3-3,5.7-3s4.4,1.1,5.7,3
		c1.1,1.4,1.6,3.3,1.6,5.2h-12.8c0,1.9,0.5,3.3,1.6,4.4c1.1,1.1,2.2,1.6,3.8,1.6c0.8,0,1.4,0,2.2-0.3c0.8-0.3,1.4-0.5,1.6-1.1
		C595.5,291.1,596,290.3,596.6,289.2z M596.6,285.1c-0.3-1.1-0.5-1.9-1.1-2.5c-0.5-0.5-1.1-1.1-1.9-1.6c-0.8-0.3-1.6-0.5-2.5-0.5
		c-1.4,0-2.5,0.5-3.5,1.4c-0.8,0.8-1.4,1.6-1.6,3.3H596.6z"/>
	<path class="st0" d="M601,279.1h10.4l-7.9,13.7h7.6v1.6h-10.9l7.9-13.7h-7.4v-1.6H601z"/>
	<path class="st0" d="M628.8,273.7l9,20.8h-2.2l-3-6.8h-8.2l-3,6.8h-2.2l9-20.8H628.8z M628.5,278l-3.3,7.4h6.6L628.5,278z"/>
	<path class="st0" d="M640.3,273.1h1.9v21.3h-1.9V273.1z"/>
	<path class="st0" d="M644.4,279.1h1.9l4.6,11.2l4.6-11.2h1.9l-6.6,15.3h-0.3L644.4,279.1z"/>
	<path class="st0" d="M674.7,279.1v15.3h-1.9v-2.7c-0.8,1.1-1.6,1.6-2.5,2.2c-0.8,0.5-1.9,0.8-3,0.8c-1.9,0-3.8-0.8-5.2-2.5
		c-1.4-1.6-2.2-3.5-2.2-5.7s0.8-4.1,2.2-5.7c1.4-1.6,3.3-2.5,5.2-2.5c1.1,0,2.2,0.3,3.3,0.8c0.8,0.5,1.6,1.4,2.5,2.5v-2.7
		L674.7,279.1z M667.3,280.5c-1.1,0-1.9,0.3-2.7,0.8s-1.6,1.4-2.2,2.2c-0.5,1.1-0.8,1.9-0.8,3s0.3,2.2,0.8,3
		c0.5,1.1,1.1,1.6,2.2,2.2c0.8,0.5,1.9,0.8,2.7,0.8c1.1,0,1.9-0.3,2.7-0.8s1.6-1.4,2.2-2.2c0.5-0.8,0.8-1.9,0.8-3.3
		c0-1.6-0.5-3.3-1.6-4.4C670.3,281.3,668.9,280.5,667.3,280.5z"/>
	<path class="st0" d="M678,279.1h1.9v2.2c0.5-0.8,1.1-1.6,1.6-1.9c0.5-0.5,1.4-0.5,1.9-0.5c0.5,0,1.1,0.3,1.6,0.5l-0.8,1.6
		c-0.3-0.3-0.8-0.3-1.1-0.3c-0.5,0-1.1,0.3-1.6,0.8c-0.5,0.5-1.1,1.4-1.4,2.5c-0.3,0.8-0.3,2.7-0.3,5.2v5.2H678V279.1z"/>
	<path class="st0" d="M698.7,289.2l1.6,0.8c-0.5,1.1-1.1,1.9-1.6,2.5c-0.5,0.5-1.4,1.1-2.2,1.6c-0.8,0.3-1.6,0.5-2.7,0.5
		c-2.2,0-4.1-0.8-5.5-2.5c-1.4-1.6-1.9-3.5-1.9-5.5c0-1.9,0.5-3.5,1.6-5.2c1.4-1.9,3.3-3,5.7-3c2.5,0,4.4,1.1,5.7,3
		c1.1,1.4,1.6,3.3,1.6,5.2h-12.8c0,1.6,0.5,3.3,1.6,4.4c1.1,1.1,2.2,1.6,3.8,1.6c0.8,0,1.4,0,2.2-0.3c0.8-0.3,1.4-0.5,1.6-1.1
		C697.6,291.1,698.2,290.3,698.7,289.2z M698.7,285.1c-0.3-1.1-0.5-1.9-1.1-2.5c-0.5-0.5-1.1-1.1-1.9-1.6c-0.8-0.3-1.6-0.5-2.5-0.5
		c-1.4,0-2.5,0.5-3.5,1.4c-0.8,0.8-1.4,1.6-1.6,3.3H698.7z"/>
	<path class="st0" d="M702.8,279.1h10.4l-7.9,13.7h7.6v1.6H702l7.9-13.7h-7.4L702.8,279.1z"/>
</g>
<g>
	<line class="st3" x1="417.2" y1="22.2" x2="379.2" y2="22.2"/>
	<line class="st3" x1="377.6" y1="7.2" x2="377.6" y2="22.2"/>
	<line class="st3" x1="305.5" y1="36.1" x2="320" y2="36.1"/>
	<line class="st3" x1="334.7" y1="36.1" x2="349.2" y2="36.1"/>
	<line class="st3" x1="364.2" y1="36.1" x2="379.2" y2="36.1"/>
	<line class="st3" x1="392.9" y1="36.1" x2="407.9" y2="36.1"/>
	<line class="st3" x1="422.4" y1="36.1" x2="437.7" y2="36.1"/>
	<line class="st3" x1="305.5" y1="47" x2="320" y2="47"/>
	<line class="st3" x1="334.7" y1="47" x2="349.2" y2="47"/>
	<line class="st3" x1="364.2" y1="47" x2="379.2" y2="47"/>
	<line class="st3" x1="392.9" y1="47" x2="407.9" y2="47"/>
	<line class="st3" x1="423.5" y1="47" x2="431.1" y2="47"/>
	<line class="st3" x1="378.4" y1="36.1" x2="378.4" y2="51.9"/>
	<line class="st3" x1="377.6" y1="65.9" x2="377.6" y2="81.4"/>
	<line class="st3" x1="464.4" y1="150" x2="452.4" y2="162"/>
	<line class="st3" x1="436.9" y1="176.7" x2="423.2" y2="190.7"/>
	<line class="st3" x1="407.6" y1="204.3" x2="393.7" y2="218.2"/>
	<line class="st3" x1="379" y1="231.9" x2="364.5" y2="246.4"/>
	<line class="st3" x1="350" y1="259.5" x2="334.7" y2="274.8"/>
	<line class="st3" x1="319.4" y1="287.9" x2="307.2" y2="299.9"/>
	<line class="st3" x1="379" y1="213.6" x2="379" y2="226.1"/>
	<line class="st3" x1="379" y1="241.7" x2="379" y2="257.3"/>
	<line class="st3" x1="379" y1="270.9" x2="379" y2="286.2"/>
	<line class="st3" x1="379" y1="267.1" x2="418.6" y2="267.1"/>
	<line class="st3" x1="305" y1="229.7" x2="319.4" y2="229.7"/>
	<line class="st3" x1="334.7" y1="229.7" x2="350" y2="229.7"/>
	<line class="st3" x1="364.5" y1="229.7" x2="379" y2="229.7"/>
	<line class="st3" x1="393.7" y1="229.4" x2="407.6" y2="229.4"/>
	<line class="st3" x1="334.7" y1="183.8" x2="334.7" y2="197.2"/>
	<path class="st3" d="M453.5,7.2c0,0-8.2-0.8-15.8,0"/>
	<path class="st3" d="M422.4,10.2c0,0-11.2,2.5-14.5,4.6"/>
	<path class="st3" d="M391.5,22.2c0,0-13.9,8.5-17.5,13.9"/>
	<path class="st3" d="M359.6,50.8c0,0-7.9,9-9.6,15.3"/>
	<path class="st3" d="M341.8,80.1c0,0-4.4,12-3.8,13.9"/>
	<path class="st3" d="M334.7,109.6c0,0,0.5,9.8,1.1,14.7"/>
	<path class="st3" d="M337.2,139.9c0,0,3,15.3,11.2,28.7"/>
	<path class="st3" d="M357.7,183.8c0,0,6.3,8.7,12.3,14.2"/>
	<path class="st3" d="M379,205.9c0,0,22.4,18.3,57.9,23.5h-13.9"/>
	<path class="st3" d="M452.4,229.7c0,0,2.7,1.4,12,0"/>
	<path class="st3" d="M410.9,58.5c0,0-6.8,4.6-10.4,7.6"/>
	<path class="st3" d="M382.8,80.1c0,0-9.8,9.3-13.7,13.9"/>
	<path class="st3" d="M357.9,110.1c0,0-6,10.1-7.9,14.2"/>
	<path class="st3" d="M343.5,139.9c0,0-7.9,17.5-7.6,28.7"/>
	<path class="st3" d="M336.1,213.6c0,0,9.3,62.8,64.7,99.9"/>
</g>
</svg>
