<?xml version="1.0" encoding="utf-8"?>
<!-- Generator: Adobe Illustrator 19.1.1, SVG Export Plug-In . SVG Version: 6.00 Build 0)  -->
<svg version="1.1" id="Layer_1" xmlns="http://www.w3.org/2000/svg" xmlns:xlink="http://www.w3.org/1999/xlink" x="0px" y="0px"
	 viewBox="0 0 153.6 113.2" style="enable-background:new 0 0 153.6 113.2;" xml:space="preserve">
<style type="text/css">
	.st0{fill:url(#SVGID_1_);}
	.st1{fill:#FFFFFF;stroke:#FFFFFF;stroke-miterlimit:10;}
	.st2{fill:#7C7C7B;}
	.st3{fill:none;stroke:#807C8F;stroke-width:0.5;stroke-miterlimit:10;}
</style>
<linearGradient id="SVGID_1_" gradientUnits="userSpaceOnUse" x1="-53.2997" y1="-253.3619" x2="99.6961" y2="-253.3619" gradientTransform="matrix(1.0001 -3.000000e-004 3.000000e-004 1.0001 53.9803 303.6635)">
	<stop  offset="0.2364" style="stop-color:#FFFFFF"/>
	<stop  offset="0.2821" style="stop-color:#F9FAFC"/>
	<stop  offset="0.3458" style="stop-color:#E7EBF3"/>
	<stop  offset="0.4201" style="stop-color:#C9D2E4"/>
	<stop  offset="0.5023" style="stop-color:#A0AFCF"/>
	<stop  offset="0.5911" style="stop-color:#6B83B5"/>
	<stop  offset="0.6841" style="stop-color:#2B4E95"/>
	<stop  offset="0.703" style="stop-color:#1D428E"/>
</linearGradient>
<polygon class="st0" points="0.6,5.6 0.6,94.9 153.6,94.9 153.6,5.6 "/>
<path class="st1" d="M141.1,30.4c-1.7-3.7-7-7.2-7-7.2C131.6,21,125,19,125,19c-5-1.7-11.5-1-11.5-1c-4.2,0.2-7.9,1.1-7.9,1.1
	c-6.5,1.7-12.3,5-12.3,5c-7.1,4.2-13.7,11.6-13.7,11.6c-0.3-0.2-2-0.8-2-0.8c-5.6-1.8-9.9,0-12.2,2.2c-2.4,2.2-3.7,5.6-3.7,5.6
	c0.5-0.1,5.7-0.8,8.2-0.8c2.5-0.1,6.8,2.2,9.3,5.9c2.5,3.7,0.3,6.1,0.3,6.1c-2.2,2.9-8.6,1.6-8.6,1.6c-8.7-1-14.9-7.6-14.9-7.6
	c-4.4-4.6-4-14-4-14c0.3-8.5,5.6-14.1,5.6-14.1c4.4-4.4,9.4-5.1,11.4-5.4c1.9-0.3,5.7,0.4,5.7,0.4c2,0.6,3.3-0.5,3.7-0.8
	c0.4-0.3,1.2-1.6,1.1-2.3c-0.2-0.7-2.5-1.1-2.5-1.1c-6.3-0.9-13.5,0.3-13.5,0.3c-10.1,1.4-23.6,9.9-23.6,9.9
	c-9.1,5.1-16.4,17.2-16.4,17.2c-3.4,5.6-6.7,14.6-6.7,14.6c5.2,12.7,10.3,16.9,10.3,16.9C38,80.5,50.2,81.1,50.2,81.1
	c9.5,1.2,16.9-0.4,16.9-0.4c8.4-1.3,14.3-5.2,14.3-5.2c5.4-2.9,8-7,8-7c0,0.4,0,5.4,0,5.4c0.6,9.8,5.4,14,5.4,14
	c6.2,7.5,16.6,4.5,16.6,4.5c4.5-0.6,11.6-4.2,11.6-4.2c4.6-2.2,8.8-6.4,8.8-6.4c3-2.9,5.5-6.3,8.7-11.9c3.2-5.7,4.5-12.4,4.5-12.4
	c0.4-2.7,0.8-8.4,0.8-8.4C145.7,37.5,141.1,30.4,141.1,30.4z M92.6,53.6C92.6,53.6,92.5,53.7,92.6,53.6
	C92.5,53.7,92.5,53.7,92.6,53.6c0.2-0.8-1.2-5.9-3-9.4c-1.9-3.7-6.5-7-6.5-7c1.6-2.9,6-5.8,6-5.8c3.2-2.7,8.3-2.3,8.3-2.3
	c5.2,0.8,6.9,4.9,6.9,4.9c1,2.3-0.6,3.2-0.6,3.2C97.6,41.3,93,52.6,92.6,53.6z M110,63.8c-3.4,9.2-7.6,9.5-7.6,9.5
	c-3.4-0.3-4.2-3.4-4.2-3.4c-1.3-3.6,1.3-13.5,1.3-13.5c3.1-9.2,7.5-14,7.5-14c1.1-1.4,3-2,3-2c3.7-0.7,3.9,4.1,3.9,4.1
	C114.4,53.1,110,63.8,110,63.8z"/>
<g>
	<path class="st2" d="M81.2,99l-0.5,0.6c-0.4-0.4-0.8-0.7-1.3-0.9c-0.5-0.2-0.9-0.3-1.4-0.3c-0.5,0-1.1,0.1-1.6,0.4
		c-0.5,0.3-0.9,0.7-1.2,1.2c-0.3,0.5-0.4,1-0.4,1.6c0,0.6,0.1,1.1,0.4,1.6c0.3,0.5,0.7,0.9,1.2,1.2c0.5,0.3,1,0.4,1.6,0.4
		c0.7,0,1.3-0.2,1.8-0.7c0.5-0.4,0.8-1,0.9-1.7l-2.2,0l0-0.7l3,0c0,1.2-0.3,2.1-1,2.8c-0.6,0.7-1.5,1-2.6,1c-1.3,0-2.3-0.5-3.1-1.4
		c-0.6-0.7-0.9-1.6-0.9-2.6c0-0.7,0.2-1.4,0.5-2c0.3-0.6,0.8-1.1,1.4-1.5c0.6-0.3,1.2-0.5,2-0.5c0.6,0,1.2,0.1,1.7,0.3
		C80.2,98.1,80.7,98.5,81.2,99z"/>
	<path class="st2" d="M82.8,99.7l0.7,0v2.6c0,0.6,0,1.1,0.1,1.3c0.1,0.3,0.3,0.6,0.5,0.8c0.3,0.2,0.6,0.3,1,0.3
		c0.4,0,0.7-0.1,0.9-0.3c0.3-0.2,0.4-0.5,0.5-0.8c0.1-0.2,0.1-0.7,0.1-1.4l0-2.6h0.7l0,2.8c0,0.8-0.1,1.4-0.3,1.7
		c-0.2,0.4-0.4,0.7-0.8,0.9c-0.3,0.2-0.8,0.3-1.3,0.3c-0.5,0-0.9-0.1-1.3-0.3c-0.3-0.2-0.6-0.5-0.8-0.9c-0.2-0.4-0.3-1-0.3-1.8
		L82.8,99.7z"/>
	<path class="st2" d="M89.4,97.6l0.7,0l0,2.1l1.1,0l0,0.6l-1.1,0l0,5l-0.7,0l0-5l-0.9,0l0-0.6l0.9,0L89.4,97.6z"/>
	<path class="st2" d="M92.3,97.4c0.2,0,0.3,0.1,0.4,0.2c0.1,0.1,0.2,0.3,0.2,0.4c0,0.2-0.1,0.3-0.2,0.4c-0.1,0.1-0.2,0.2-0.4,0.2
		c-0.1,0-0.3-0.1-0.4-0.2c-0.1-0.1-0.2-0.3-0.2-0.4c0-0.2,0.1-0.3,0.2-0.4C92.1,97.5,92.2,97.4,92.3,97.4z M92,99.7l0.7,0l0,5.6
		l-0.7,0L92,99.7z"/>
	<path class="st2" d="M98.4,103.5l0.6,0.3c-0.2,0.4-0.4,0.7-0.6,1c-0.2,0.2-0.5,0.4-0.8,0.5c-0.3,0.1-0.6,0.2-1,0.2
		c-0.8,0-1.5-0.3-2-0.9c-0.5-0.6-0.7-1.3-0.7-2c0-0.7,0.2-1.3,0.6-1.9c0.5-0.7,1.2-1.1,2.1-1.1c0.9,0,1.6,0.4,2.1,1.1
		c0.4,0.5,0.6,1.2,0.6,1.9h-4.7c0,0.7,0.2,1.2,0.6,1.6c0.4,0.4,0.8,0.6,1.4,0.6c0.3,0,0.5,0,0.8-0.1c0.3-0.1,0.5-0.2,0.6-0.4
		C98,104.1,98.2,103.8,98.4,103.5z M98.4,101.9c-0.1-0.4-0.2-0.7-0.4-0.9c-0.2-0.2-0.4-0.4-0.7-0.6c-0.3-0.1-0.6-0.2-0.9-0.2
		c-0.5,0-0.9,0.2-1.3,0.5c-0.3,0.3-0.5,0.6-0.6,1.2L98.4,101.9z M96.8,97.1l1,0l-1.4,1.6l-0.7,0L96.8,97.1z"/>
	<path class="st2" d="M100.1,99.7l0.7,0l0,0.8c0.2-0.3,0.4-0.6,0.6-0.7c0.2-0.2,0.5-0.2,0.7-0.2c0.2,0,0.4,0.1,0.6,0.2l-0.3,0.6
		c-0.1-0.1-0.3-0.1-0.4-0.1c-0.2,0-0.4,0.1-0.6,0.3c-0.2,0.2-0.4,0.5-0.5,0.9c-0.1,0.3-0.1,1-0.1,1.9l0,1.9l-0.7,0V99.7z"/>
	<path class="st2" d="M103.1,99.7l0.7,0v0.8c0.2-0.3,0.4-0.6,0.6-0.7c0.2-0.2,0.5-0.2,0.7-0.2c0.2,0,0.4,0.1,0.6,0.2l-0.3,0.6
		c-0.1-0.1-0.3-0.1-0.4-0.1c-0.2,0-0.4,0.1-0.6,0.3c-0.2,0.2-0.4,0.5-0.5,0.9c-0.1,0.3-0.1,1-0.1,1.9l0,1.9l-0.7,0L103.1,99.7z"/>
	<path class="st2" d="M110.6,103.4l0.6,0.3c-0.2,0.4-0.4,0.7-0.6,0.9c-0.2,0.2-0.5,0.4-0.8,0.5c-0.3,0.1-0.6,0.2-1,0.2
		c-0.8,0-1.5-0.3-2-0.9c-0.5-0.6-0.7-1.3-0.7-2c0-0.7,0.2-1.3,0.6-1.9c0.5-0.7,1.2-1.1,2.1-1.1c0.9,0,1.6,0.4,2.1,1.1
		c0.4,0.5,0.6,1.2,0.6,1.9l-4.7,0c0,0.7,0.2,1.2,0.6,1.6c0.4,0.4,0.8,0.6,1.4,0.6c0.3,0,0.5,0,0.8-0.1c0.3-0.1,0.5-0.2,0.6-0.4
		C110.2,104.1,110.4,103.8,110.6,103.4z M110.6,101.9c-0.1-0.4-0.2-0.7-0.4-0.9c-0.2-0.2-0.4-0.4-0.7-0.6c-0.3-0.1-0.6-0.2-0.9-0.2
		c-0.5,0-0.9,0.2-1.3,0.5c-0.3,0.3-0.5,0.6-0.6,1.2H110.6z"/>
	<path class="st2" d="M112.2,99.7l3.8,0l-2.9,5h2.8l0,0.6l-4,0l2.9-5h-2.7V99.7z"/>
	<path class="st2" d="M122.4,97.7l3.3,7.6l-0.8,0l-1.1-2.5h-3l-1.1,2.5l-0.8,0l3.3-7.6L122.4,97.7z M122.3,99.3l-1.2,2.7l2.4,0
		L122.3,99.3z"/>
	<path class="st2" d="M126.6,97.5h0.7l0,7.8l-0.7,0L126.6,97.5z"/>
	<path class="st2" d="M128.1,99.7l0.7,0l1.7,4.1l1.7-4.1l0.7,0l-2.4,5.6l-0.1,0L128.1,99.7z"/>
	<path class="st2" d="M139.2,99.7l0,5.6h-0.7l0-1c-0.3,0.4-0.6,0.6-0.9,0.8c-0.3,0.2-0.7,0.3-1.1,0.3c-0.7,0-1.4-0.3-1.9-0.9
		c-0.5-0.6-0.8-1.3-0.8-2.1c0-0.8,0.3-1.5,0.8-2.1c0.5-0.6,1.2-0.9,1.9-0.9c0.4,0,0.8,0.1,1.2,0.3c0.3,0.2,0.6,0.5,0.9,0.9l0-1
		L139.2,99.7z M136.5,100.2c-0.4,0-0.7,0.1-1,0.3c-0.3,0.2-0.6,0.5-0.8,0.8c-0.2,0.4-0.3,0.7-0.3,1.1c0,0.4,0.1,0.8,0.3,1.1
		c0.2,0.4,0.4,0.6,0.8,0.8c0.3,0.2,0.7,0.3,1,0.3c0.4,0,0.7-0.1,1-0.3c0.3-0.2,0.6-0.5,0.8-0.8c0.2-0.3,0.3-0.7,0.3-1.2
		c0-0.6-0.2-1.2-0.6-1.6C137.6,100.5,137.1,100.2,136.5,100.2z"/>
	<path class="st2" d="M140.4,99.7l0.7,0l0,0.8c0.2-0.3,0.4-0.6,0.6-0.7c0.2-0.2,0.5-0.2,0.7-0.2c0.2,0,0.4,0.1,0.6,0.2l-0.3,0.6
		c-0.1-0.1-0.3-0.1-0.4-0.1c-0.2,0-0.4,0.1-0.6,0.3c-0.2,0.2-0.4,0.5-0.5,0.9c-0.1,0.3-0.1,1-0.1,1.9l0,1.9l-0.7,0L140.4,99.7z"/>
	<path class="st2" d="M148,103.4l0.6,0.3c-0.2,0.4-0.4,0.7-0.6,0.9c-0.2,0.2-0.5,0.4-0.8,0.6c-0.3,0.1-0.6,0.2-1,0.2
		c-0.8,0-1.5-0.3-2-0.9c-0.5-0.6-0.7-1.3-0.7-2c0-0.7,0.2-1.3,0.6-1.9c0.5-0.7,1.2-1.1,2.1-1.1c0.9,0,1.6,0.4,2.1,1.1
		c0.4,0.5,0.6,1.2,0.6,1.9l-4.7,0c0,0.6,0.2,1.2,0.6,1.6c0.4,0.4,0.8,0.6,1.4,0.6c0.3,0,0.5,0,0.8-0.1c0.3-0.1,0.5-0.2,0.6-0.4
		C147.6,104.1,147.8,103.8,148,103.4z M148,101.9c-0.1-0.4-0.2-0.7-0.4-0.9c-0.2-0.2-0.4-0.4-0.7-0.6c-0.3-0.1-0.6-0.2-0.9-0.2
		c-0.5,0-0.9,0.2-1.3,0.5c-0.3,0.3-0.5,0.6-0.6,1.2L148,101.9z"/>
	<path class="st2" d="M149.5,99.7l3.8,0l-2.9,5l2.8,0v0.6l-4,0l2.9-5h-2.7L149.5,99.7z"/>
</g>
<g>
	<line class="st3" x1="44.9" y1="5.6" x2="31" y2="5.6"/>
	<line class="st3" x1="30.4" y1="0.1" x2="30.4" y2="5.6"/>
	<line class="st3" x1="4" y1="10.7" x2="9.3" y2="10.7"/>
	<line class="st3" x1="14.7" y1="10.7" x2="20" y2="10.7"/>
	<line class="st3" x1="25.5" y1="10.7" x2="31" y2="10.7"/>
	<line class="st3" x1="36" y1="10.7" x2="41.5" y2="10.7"/>
	<line class="st3" x1="46.8" y1="10.7" x2="52.4" y2="10.7"/>
	<line class="st3" x1="4" y1="14.7" x2="9.3" y2="14.7"/>
	<line class="st3" x1="14.7" y1="14.7" x2="20" y2="14.7"/>
	<line class="st3" x1="25.5" y1="14.7" x2="31" y2="14.7"/>
	<line class="st3" x1="36" y1="14.7" x2="41.5" y2="14.7"/>
	<line class="st3" x1="47.2" y1="14.7" x2="50" y2="14.7"/>
	<line class="st3" x1="30.7" y1="10.7" x2="30.7" y2="16.5"/>
	<line class="st3" x1="30.4" y1="21.6" x2="30.4" y2="27.3"/>
	<line class="st3" x1="62.2" y1="52.4" x2="57.8" y2="56.8"/>
	<line class="st3" x1="52.1" y1="62.2" x2="47.1" y2="67.3"/>
	<line class="st3" x1="41.4" y1="72.3" x2="36.3" y2="77.4"/>
	<line class="st3" x1="30.9" y1="82.4" x2="25.6" y2="87.7"/>
	<line class="st3" x1="20.3" y1="92.5" x2="14.7" y2="98.1"/>
	<line class="st3" x1="9.1" y1="102.9" x2="4.6" y2="107.3"/>
	<line class="st3" x1="30.9" y1="75.7" x2="30.9" y2="80.3"/>
	<line class="st3" x1="30.9" y1="86" x2="30.9" y2="91.7"/>
	<line class="st3" x1="30.9" y1="96.7" x2="30.9" y2="102.3"/>
	<line class="st3" x1="30.9" y1="95.3" x2="45.4" y2="95.3"/>
	<line class="st3" x1="3.8" y1="81.6" x2="9.1" y2="81.6"/>
	<line class="st3" x1="14.7" y1="81.6" x2="20.3" y2="81.6"/>
	<line class="st3" x1="25.6" y1="81.6" x2="30.9" y2="81.6"/>
	<line class="st3" x1="36.3" y1="81.5" x2="41.4" y2="81.5"/>
	<line class="st3" x1="14.7" y1="64.8" x2="14.7" y2="69.7"/>
	<path class="st3" d="M58.2,0.1c0,0-3-0.3-5.8,0"/>
	<path class="st3" d="M46.8,1.2c0,0-4.1,0.9-5.3,1.7"/>
	<path class="st3" d="M35.5,5.6c0,0-5.1,3.1-6.4,5.1"/>
	<path class="st3" d="M23.8,16.1c0,0-2.9,3.3-3.5,5.6"/>
	<path class="st3" d="M17.3,26.8c0,0-1.6,4.4-1.4,5.1"/>
	<path class="st3" d="M14.7,37.6c0,0,0.2,3.6,0.4,5.4"/>
	<path class="st3" d="M15.6,48.7c0,0,1.1,5.6,4.1,10.5"/>
	<path class="st3" d="M23.1,64.8c0,0,2.3,3.2,4.5,5.2"/>
	<path class="st3" d="M30.9,72.9c0,0,8.2,6.7,21.2,8.6h-5.1"/>
	<path class="st3" d="M57.8,81.6c0,0,1,0.5,4.4,0"/>
	<path class="st3" d="M42.6,18.9c0,0-2.5,1.7-3.8,2.8"/>
	<path class="st3" d="M32.3,26.8c0,0-3.6,3.4-5,5.1"/>
	<path class="st3" d="M23.2,37.8c0,0-2.2,3.7-2.9,5.2"/>
	<path class="st3" d="M17.9,48.7c0,0-2.9,6.4-2.8,10.5"/>
	<path class="st3" d="M15.2,75.7c0,0,3.4,23,23.7,36.6"/>
</g>
</svg>
