<?xml version="1.0" encoding="utf-8"?>
<!-- Generator: Adobe Illustrator 19.1.1, SVG Export Plug-In . SVG Version: 6.00 Build 0)  -->
<svg version="1.1" id="Layer_1" xmlns="http://www.w3.org/2000/svg" xmlns:xlink="http://www.w3.org/1999/xlink" x="0px" y="0px"
	 viewBox="0 0 157.8 117" style="enable-background:new 0 0 157.8 117;" xml:space="preserve">
<style type="text/css">
	.st0{fill:url(#SVGID_1_);}
	.st1{fill:#FFFFFF;stroke:#FFFFFF;stroke-miterlimit:10;}
	.st2{fill:#7C7C7B;}
	.st3{fill:none;stroke:#807C8F;stroke-width:0.5;stroke-miterlimit:10;}
</style>
<linearGradient id="SVGID_1_" gradientUnits="userSpaceOnUse" x1="-51.6238" y1="-252.2982" x2="101.3721" y2="-252.2982" gradientTransform="matrix(1.0001 -3.000000e-004 3.000000e-004 1.0001 53.98 303.6633)">
	<stop  offset="0.2364" style="stop-color:#FFFFFF"/>
	<stop  offset="0.2821" style="stop-color:#F9FAFC"/>
	<stop  offset="0.3458" style="stop-color:#E7EBF3"/>
	<stop  offset="0.4201" style="stop-color:#C9D2E4"/>
	<stop  offset="0.5023" style="stop-color:#A0AFCF"/>
	<stop  offset="0.5911" style="stop-color:#6B83B5"/>
	<stop  offset="0.6841" style="stop-color:#2B4E95"/>
	<stop  offset="0.703" style="stop-color:#1D428E"/>
</linearGradient>
<polygon class="st0" points="2.3,6.7 2.3,96 155.3,96 155.3,6.7 "/>
<path class="st1" d="M142.8,31.5c-1.7-3.7-7-7.2-7-7.2c-2.5-2.2-9.2-4.3-9.2-4.3c-5-1.7-11.5-1-11.5-1c-4.2,0.2-7.9,1.1-7.9,1.1
	c-6.5,1.7-12.3,5-12.3,5c-7.1,4.2-13.7,11.6-13.7,11.6c-0.3-0.2-2-0.8-2-0.8c-5.6-1.8-9.9,0-12.2,2.2c-2.4,2.2-3.7,5.6-3.7,5.6
	c0.5-0.1,5.7-0.8,8.2-0.8c2.5-0.1,6.8,2.2,9.3,5.9c2.5,3.7,0.3,6.1,0.3,6.1c-2.2,2.9-8.6,1.6-8.6,1.6c-8.7-1-14.9-7.6-14.9-7.6
	c-4.4-4.6-4-14-4-14c0.3-8.5,5.6-14.1,5.6-14.1c4.4-4.4,9.4-5.1,11.4-5.4c1.9-0.3,5.7,0.4,5.7,0.4c2,0.6,3.3-0.5,3.7-0.8
	c0.4-0.3,1.2-1.6,1.1-2.3c-0.2-0.7-2.5-1.1-2.5-1.1C72.2,10.6,65,11.8,65,11.8c-10.1,1.4-23.6,9.9-23.6,9.9
	c-9.1,5.1-16.4,17.2-16.4,17.2c-3.4,5.6-6.7,14.6-6.7,14.6c5.2,12.7,10.3,16.9,10.3,16.9c11.2,11.2,23.4,11.9,23.4,11.9
	c9.5,1.2,16.9-0.4,16.9-0.4c8.4-1.3,14.3-5.2,14.3-5.2c5.4-2.9,8-7,8-7c0,0.4,0,5.4,0,5.4c0.6,9.8,5.4,14,5.4,14
	c6.2,7.5,16.6,4.5,16.6,4.5c4.5-0.6,11.6-4.2,11.6-4.2c4.6-2.2,8.8-6.4,8.8-6.4c3-2.9,5.5-6.3,8.7-11.9c3.2-5.7,4.5-12.4,4.5-12.4
	c0.4-2.7,0.8-8.4,0.8-8.4C147.4,38.6,142.8,31.5,142.8,31.5z M94.2,54.7C94.2,54.7,94.2,54.7,94.2,54.7
	C94.2,54.7,94.2,54.7,94.2,54.7c0.2-0.8-1.2-5.9-3-9.4c-1.9-3.7-6.5-7-6.5-7c1.6-2.9,6-5.8,6-5.8c3.2-2.7,8.3-2.3,8.3-2.3
	c5.2,0.8,6.9,4.9,6.9,4.9c1,2.3-0.6,3.2-0.6,3.2C99.3,42.4,94.6,53.6,94.2,54.7z M111.7,64.8c-3.4,9.2-7.6,9.5-7.6,9.5
	c-3.4-0.3-4.2-3.4-4.2-3.4c-1.3-3.6,1.3-13.5,1.3-13.5c3.1-9.2,7.5-14,7.5-14c1.1-1.4,3-2,3-2c3.7-0.7,3.9,4.1,3.9,4.1
	C116,54.1,111.7,64.8,111.7,64.8z"/>
<g>
	<path class="st2" d="M82.9,100.1l-0.5,0.6c-0.4-0.4-0.8-0.7-1.3-0.9c-0.5-0.2-0.9-0.3-1.4-0.3c-0.5,0-1.1,0.1-1.6,0.4
		c-0.5,0.3-0.9,0.7-1.2,1.2c-0.3,0.5-0.4,1-0.4,1.6c0,0.6,0.1,1.1,0.4,1.6c0.3,0.5,0.7,0.9,1.2,1.2c0.5,0.3,1,0.4,1.6,0.4
		c0.7,0,1.3-0.2,1.8-0.7c0.5-0.4,0.8-1,0.9-1.7l-2.2,0l0-0.7l3,0c0,1.2-0.3,2.1-1,2.8c-0.6,0.7-1.5,1-2.6,1c-1.3,0-2.3-0.5-3.1-1.4
		c-0.6-0.7-0.9-1.6-0.9-2.6c0-0.7,0.2-1.4,0.5-2c0.3-0.6,0.8-1.1,1.4-1.5c0.6-0.3,1.2-0.5,2-0.5c0.6,0,1.2,0.1,1.7,0.3
		C81.9,99.2,82.4,99.6,82.9,100.1z"/>
	<path class="st2" d="M84.5,100.8l0.7,0v2.6c0,0.6,0,1.1,0.1,1.3c0.1,0.3,0.3,0.6,0.5,0.8c0.3,0.2,0.6,0.3,1,0.3
		c0.4,0,0.7-0.1,0.9-0.3c0.3-0.2,0.4-0.5,0.5-0.8c0.1-0.2,0.1-0.7,0.1-1.4l0-2.6H89l0,2.8c0,0.8-0.1,1.4-0.3,1.7s-0.4,0.7-0.8,0.9
		c-0.3,0.2-0.8,0.3-1.3,0.3c-0.5,0-0.9-0.1-1.3-0.3c-0.3-0.2-0.6-0.5-0.8-0.9c-0.2-0.4-0.3-1-0.3-1.8L84.5,100.8z"/>
	<path class="st2" d="M91.1,98.7l0.7,0l0,2.1l1.1,0l0,0.6l-1.1,0l0,5l-0.7,0l0-5l-0.9,0l0-0.6l0.9,0L91.1,98.7z"/>
	<path class="st2" d="M94,98.5c0.2,0,0.3,0.1,0.4,0.2c0.1,0.1,0.2,0.3,0.2,0.4c0,0.2-0.1,0.3-0.2,0.4c-0.1,0.1-0.2,0.2-0.4,0.2
		c-0.1,0-0.3-0.1-0.4-0.2c-0.1-0.1-0.2-0.3-0.2-0.4c0-0.2,0.1-0.3,0.2-0.4C93.7,98.5,93.9,98.5,94,98.5z M93.7,100.8l0.7,0l0,5.6
		l-0.7,0L93.7,100.8z"/>
	<path class="st2" d="M100.1,104.5l0.6,0.3c-0.2,0.4-0.4,0.7-0.6,1c-0.2,0.2-0.5,0.4-0.8,0.5c-0.3,0.1-0.6,0.2-1,0.2
		c-0.8,0-1.5-0.3-2-0.9c-0.5-0.6-0.7-1.3-0.7-2c0-0.7,0.2-1.3,0.6-1.9c0.5-0.7,1.2-1.1,2.1-1.1c0.9,0,1.6,0.4,2.1,1.1
		c0.4,0.5,0.6,1.2,0.6,1.9h-4.7c0,0.7,0.2,1.2,0.6,1.6c0.4,0.4,0.8,0.6,1.4,0.6c0.3,0,0.5,0,0.8-0.1c0.3-0.1,0.5-0.2,0.6-0.4
		C99.7,105.1,99.9,104.9,100.1,104.5z M100.1,103c-0.1-0.4-0.2-0.7-0.4-0.9c-0.2-0.2-0.4-0.4-0.7-0.6c-0.3-0.1-0.6-0.2-0.9-0.2
		c-0.5,0-0.9,0.2-1.3,0.5c-0.3,0.3-0.5,0.6-0.6,1.2L100.1,103z M98.5,98.1l1,0l-1.4,1.6l-0.7,0L98.5,98.1z"/>
	<path class="st2" d="M101.8,100.8l0.7,0l0,0.8c0.2-0.3,0.4-0.6,0.6-0.7c0.2-0.2,0.5-0.2,0.7-0.2c0.2,0,0.4,0.1,0.6,0.2l-0.3,0.6
		c-0.1-0.1-0.3-0.1-0.4-0.1c-0.2,0-0.4,0.1-0.6,0.3c-0.2,0.2-0.4,0.5-0.5,0.9c-0.1,0.3-0.1,1-0.1,1.9l0,1.9l-0.7,0V100.8z"/>
	<path class="st2" d="M104.8,100.8l0.7,0v0.8c0.2-0.3,0.4-0.6,0.6-0.7c0.2-0.2,0.5-0.2,0.7-0.2c0.2,0,0.4,0.1,0.6,0.2l-0.3,0.6
		c-0.1-0.1-0.3-0.1-0.4-0.1c-0.2,0-0.4,0.1-0.6,0.3c-0.2,0.2-0.4,0.5-0.5,0.9c-0.1,0.3-0.1,1-0.1,1.9l0,1.9l-0.7,0L104.8,100.8z"/>
	<path class="st2" d="M112.3,104.5l0.6,0.3c-0.2,0.4-0.4,0.7-0.6,0.9c-0.2,0.2-0.5,0.4-0.8,0.5c-0.3,0.1-0.6,0.2-1,0.2
		c-0.8,0-1.5-0.3-2-0.9c-0.5-0.6-0.7-1.3-0.7-2c0-0.7,0.2-1.3,0.6-1.9c0.5-0.7,1.2-1.1,2.1-1.1c0.9,0,1.6,0.4,2.1,1.1
		c0.4,0.5,0.6,1.2,0.6,1.9l-4.7,0c0,0.7,0.2,1.2,0.6,1.6c0.4,0.4,0.8,0.6,1.4,0.6c0.3,0,0.5,0,0.8-0.1c0.3-0.1,0.5-0.2,0.6-0.4
		C111.9,105.1,112.1,104.9,112.3,104.5z M112.3,103c-0.1-0.4-0.2-0.7-0.4-0.9c-0.2-0.2-0.4-0.4-0.7-0.6c-0.3-0.1-0.6-0.2-0.9-0.2
		c-0.5,0-0.9,0.2-1.3,0.5c-0.3,0.3-0.5,0.6-0.6,1.2H112.3z"/>
	<path class="st2" d="M113.9,100.8l3.8,0l-2.9,5h2.8l0,0.6l-4,0l2.9-5h-2.7V100.8z"/>
	<path class="st2" d="M124.1,98.8l3.3,7.6l-0.8,0l-1.1-2.5h-3l-1.1,2.5l-0.8,0l3.3-7.6L124.1,98.8z M124,100.4l-1.2,2.7l2.4,0
		L124,100.4z"/>
	<path class="st2" d="M128.2,98.6h0.7l0,7.8l-0.7,0L128.2,98.6z"/>
	<path class="st2" d="M129.8,100.8l0.7,0l1.7,4.1l1.7-4.1l0.7,0l-2.4,5.6l-0.1,0L129.8,100.8z"/>
	<path class="st2" d="M140.9,100.8l0,5.6h-0.7l0-1c-0.3,0.4-0.6,0.6-0.9,0.8c-0.3,0.2-0.7,0.3-1.1,0.3c-0.7,0-1.4-0.3-1.9-0.9
		c-0.5-0.6-0.8-1.3-0.8-2.1c0-0.8,0.3-1.5,0.8-2.1c0.5-0.6,1.2-0.9,1.9-0.9c0.4,0,0.8,0.1,1.2,0.3c0.3,0.2,0.6,0.5,0.9,0.9l0-1
		L140.9,100.8z M138.2,101.3c-0.4,0-0.7,0.1-1,0.3c-0.3,0.2-0.6,0.5-0.8,0.8c-0.2,0.4-0.3,0.7-0.3,1.1c0,0.4,0.1,0.8,0.3,1.1
		c0.2,0.4,0.4,0.6,0.8,0.8c0.3,0.2,0.7,0.3,1,0.3c0.4,0,0.7-0.1,1-0.3c0.3-0.2,0.6-0.5,0.8-0.8c0.2-0.3,0.3-0.7,0.3-1.2
		c0-0.6-0.2-1.2-0.6-1.6C139.3,101.5,138.8,101.3,138.2,101.3z"/>
	<path class="st2" d="M142.1,100.8l0.7,0l0,0.8c0.2-0.3,0.4-0.6,0.6-0.7c0.2-0.2,0.5-0.2,0.7-0.2c0.2,0,0.4,0.1,0.6,0.2l-0.3,0.6
		c-0.1-0.1-0.3-0.1-0.4-0.1c-0.2,0-0.4,0.1-0.6,0.3c-0.2,0.2-0.4,0.5-0.5,0.9c-0.1,0.3-0.1,1-0.1,1.9l0,1.9l-0.7,0L142.1,100.8z"/>
	<path class="st2" d="M149.7,104.5l0.6,0.3c-0.2,0.4-0.4,0.7-0.6,0.9c-0.2,0.2-0.5,0.4-0.8,0.6c-0.3,0.1-0.6,0.2-1,0.2
		c-0.8,0-1.5-0.3-2-0.9c-0.5-0.6-0.7-1.3-0.7-2c0-0.7,0.2-1.3,0.6-1.9c0.5-0.7,1.2-1.1,2.1-1.1c0.9,0,1.6,0.4,2.1,1.1
		c0.4,0.5,0.6,1.2,0.6,1.9l-4.7,0c0,0.6,0.2,1.2,0.6,1.6c0.4,0.4,0.8,0.6,1.4,0.6c0.3,0,0.5,0,0.8-0.1c0.3-0.1,0.5-0.2,0.6-0.4
		C149.3,105.1,149.4,104.9,149.7,104.5z M149.7,103c-0.1-0.4-0.2-0.7-0.4-0.9c-0.2-0.2-0.4-0.4-0.7-0.6c-0.3-0.1-0.6-0.2-0.9-0.2
		c-0.5,0-0.9,0.2-1.3,0.5c-0.3,0.3-0.5,0.6-0.6,1.2L149.7,103z"/>
	<path class="st2" d="M151.2,100.8l3.8,0l-2.9,5l2.8,0v0.6l-4,0l2.9-5h-2.7L151.2,100.8z"/>
</g>
<g>
	<line class="st3" x1="46.6" y1="6.7" x2="32.7" y2="6.7"/>
	<line class="st3" x1="32.1" y1="1.2" x2="32.1" y2="6.7"/>
	<line class="st3" x1="5.6" y1="11.8" x2="11" y2="11.8"/>
	<line class="st3" x1="16.4" y1="11.8" x2="21.6" y2="11.8"/>
	<line class="st3" x1="27.2" y1="11.8" x2="32.7" y2="11.7"/>
	<line class="st3" x1="37.7" y1="11.7" x2="43.1" y2="11.7"/>
	<line class="st3" x1="48.5" y1="11.7" x2="54.1" y2="11.7"/>
	<line class="st3" x1="5.6" y1="15.8" x2="11" y2="15.8"/>
	<line class="st3" x1="16.4" y1="15.8" x2="21.6" y2="15.8"/>
	<line class="st3" x1="27.2" y1="15.8" x2="32.7" y2="15.8"/>
	<line class="st3" x1="37.7" y1="15.8" x2="43.1" y2="15.8"/>
	<line class="st3" x1="48.9" y1="15.8" x2="51.7" y2="15.8"/>
	<line class="st3" x1="32.4" y1="11.7" x2="32.4" y2="17.6"/>
	<line class="st3" x1="32.1" y1="22.7" x2="32.1" y2="28.4"/>
	<line class="st3" x1="63.8" y1="53.5" x2="59.5" y2="57.8"/>
	<line class="st3" x1="53.8" y1="63.3" x2="48.7" y2="68.4"/>
	<line class="st3" x1="43.1" y1="73.4" x2="38" y2="78.4"/>
	<line class="st3" x1="32.6" y1="83.4" x2="27.3" y2="88.7"/>
	<line class="st3" x1="21.9" y1="93.6" x2="16.4" y2="99.2"/>
	<line class="st3" x1="10.8" y1="103.9" x2="6.3" y2="108.4"/>
	<line class="st3" x1="32.6" y1="76.8" x2="32.6" y2="81.4"/>
	<line class="st3" x1="32.6" y1="87" x2="32.6" y2="92.8"/>
	<line class="st3" x1="32.6" y1="97.8" x2="32.6" y2="103.3"/>
	<line class="st3" x1="32.6" y1="96.4" x2="47.1" y2="96.4"/>
	<line class="st3" x1="5.5" y1="82.6" x2="10.8" y2="82.6"/>
	<line class="st3" x1="16.4" y1="82.6" x2="21.9" y2="82.6"/>
	<line class="st3" x1="27.3" y1="82.6" x2="32.6" y2="82.6"/>
	<line class="st3" x1="38" y1="82.6" x2="43.1" y2="82.6"/>
	<line class="st3" x1="16.4" y1="65.9" x2="16.4" y2="70.8"/>
	<path class="st3" d="M59.9,1.2c0,0-3-0.3-5.8,0"/>
	<path class="st3" d="M48.5,2.2c0,0-4.1,0.9-5.3,1.7"/>
	<path class="st3" d="M37.1,6.7c0,0-5.1,3.1-6.4,5.1"/>
	<path class="st3" d="M25.5,17.2c0,0-2.9,3.3-3.5,5.6"/>
	<path class="st3" d="M19,27.9c0,0-1.6,4.4-1.4,5.1"/>
	<path class="st3" d="M16.4,38.6c0,0,0.2,3.6,0.4,5.4"/>
	<path class="st3" d="M17.3,49.8c0,0,1.1,5.6,4.1,10.5"/>
	<path class="st3" d="M24.7,65.9c0,0,2.3,3.2,4.5,5.2"/>
	<path class="st3" d="M32.6,74c0,0,8.2,6.7,21.2,8.6h-5.1"/>
	<path class="st3" d="M59.5,82.6c0,0,1,0.5,4.4,0"/>
	<path class="st3" d="M44.3,19.9c0,0-2.5,1.7-3.8,2.8"/>
	<path class="st3" d="M33.9,27.9c0,0-3.6,3.4-5,5.1"/>
	<path class="st3" d="M24.9,38.8c0,0-2.2,3.7-2.9,5.2"/>
	<path class="st3" d="M19.6,49.8c0,0-2.9,6.4-2.8,10.5"/>
	<path class="st3" d="M16.8,76.8c0,0,3.4,23,23.7,36.6"/>
</g>
<g>
	<path class="st2" d="M124,109.8c-0.2-0.3-0.4-0.5-0.6-0.6c-0.2-0.1-0.5-0.2-0.8-0.2c-0.5,0-0.9,0.2-1.2,0.5
		c-0.3,0.4-0.5,0.8-0.5,1.3c0,0.5,0.2,1,0.5,1.3c0.3,0.4,0.7,0.5,1.2,0.5c0.3,0,0.6-0.1,0.8-0.2c0.2-0.1,0.4-0.3,0.6-0.6h0.5
		c-0.2,0.4-0.5,0.6-0.8,0.8c-0.3,0.2-0.7,0.3-1.1,0.3c-0.6,0-1.1-0.2-1.6-0.6c-0.4-0.4-0.6-1-0.6-1.6c0-0.3,0.1-0.6,0.2-0.8
		c0.1-0.3,0.3-0.5,0.5-0.7c0.2-0.2,0.4-0.4,0.7-0.5c0.3-0.1,0.5-0.2,0.8-0.2c0.4,0,0.8,0.1,1.1,0.3c0.3,0.2,0.6,0.5,0.8,0.9H124z"/>
	<path class="st2" d="M124.9,111.4c0-0.5,0.2-0.9,0.5-1.2c0.3-0.3,0.7-0.5,1.2-0.5c0.5,0,0.9,0.2,1.2,0.5c0.3,0.3,0.5,0.7,0.5,1.2
		c0,0.5-0.2,0.9-0.5,1.2c-0.3,0.3-0.7,0.5-1.2,0.5c-0.5,0-0.9-0.2-1.2-0.5C125.1,112.2,124.9,111.8,124.9,111.4z M125.3,111.4
		c0,0.4,0.1,0.7,0.4,0.9c0.2,0.3,0.5,0.4,0.9,0.4c0.3,0,0.6-0.1,0.9-0.4c0.2-0.3,0.4-0.6,0.4-0.9c0-0.4-0.1-0.7-0.4-0.9
		c-0.2-0.2-0.5-0.4-0.9-0.4c-0.3,0-0.6,0.1-0.8,0.4C125.5,110.7,125.3,111,125.3,111.4z"/>
	<path class="st2" d="M128.7,109.7h0.4v0.4c0.1-0.1,0.3-0.3,0.4-0.3c0.2-0.1,0.4-0.1,0.6-0.1c0.2,0,0.4,0,0.6,0.1
		c0.2,0.1,0.3,0.2,0.4,0.4c0.1,0.1,0.1,0.3,0.2,0.4c0,0.2,0,0.4,0,0.7v1.7H131v-1.8c0-0.4-0.1-0.7-0.2-0.8c-0.1-0.2-0.4-0.3-0.7-0.3
		c-0.2,0-0.4,0-0.5,0.1c-0.1,0.1-0.3,0.2-0.3,0.3c-0.1,0.1-0.1,0.2-0.1,0.3c0,0.1,0,0.3,0,0.6v1.6h-0.4V109.7z"/>
	<path class="st2" d="M131.9,112h0.4v0c0,0.2,0.1,0.4,0.2,0.5c0.1,0.1,0.3,0.2,0.4,0.2c0.2,0,0.3-0.1,0.4-0.2
		c0.1-0.1,0.2-0.2,0.2-0.4c0-0.2,0-0.3-0.1-0.4c-0.1-0.1-0.2-0.2-0.5-0.3c-0.4-0.1-0.6-0.3-0.7-0.4c-0.1-0.1-0.2-0.3-0.2-0.5
		c0-0.3,0.1-0.5,0.3-0.6c0.2-0.2,0.4-0.3,0.7-0.3c0.3,0,0.5,0.1,0.7,0.2c0.2,0.2,0.2,0.4,0.3,0.7h-0.4c0-0.2-0.1-0.3-0.1-0.4
		c-0.1-0.1-0.2-0.1-0.4-0.1c-0.1,0-0.2,0-0.3,0.1c-0.1,0.1-0.1,0.2-0.1,0.3c0,0.1,0,0.2,0.1,0.2c0,0.1,0.1,0.1,0.2,0.2
		c0.1,0,0.2,0.1,0.3,0.1c0.1,0,0.2,0.1,0.3,0.1c0.2,0.1,0.3,0.2,0.4,0.3c0.1,0.1,0.1,0.3,0.1,0.5c0,0.3-0.1,0.5-0.3,0.7
		c-0.2,0.2-0.4,0.3-0.7,0.3c-0.3,0-0.5-0.1-0.7-0.3C132,112.6,131.9,112.3,131.9,112z"/>
	<path class="st2" d="M134.7,113v-2.8h-0.6v-0.4h0.6v-1h0.4v1h0.6v0.4h-0.6v2.8H134.7z"/>
	<path class="st2" d="M136.4,113H136v-3.2h0.4v0.4c0.1-0.1,0.2-0.2,0.3-0.3c0.1-0.1,0.3-0.1,0.4-0.1l0,0.4c-0.3,0-0.4,0.1-0.6,0.2
		c-0.1,0.1-0.2,0.3-0.2,0.6V113z"/>
	<path class="st2" d="M137.5,109.7h0.4v1.7c0,0.4,0.1,0.8,0.2,0.9c0.1,0.2,0.4,0.3,0.7,0.3c0.2,0,0.3,0,0.5-0.1
		c0.1-0.1,0.3-0.2,0.3-0.3c0-0.1,0.1-0.2,0.1-0.3c0-0.1,0-0.3,0-0.6v-1.6h0.4v3.2h-0.4v-0.3c-0.1,0.2-0.3,0.3-0.4,0.3
		c-0.2,0.1-0.3,0.1-0.6,0.1c-0.5,0-0.8-0.1-1-0.4c-0.2-0.3-0.3-0.7-0.3-1.3V109.7z"/>
	<path class="st2" d="M143.5,110.7c-0.1-0.2-0.3-0.4-0.5-0.5c-0.2-0.1-0.4-0.2-0.7-0.2c-0.3,0-0.6,0.1-0.8,0.4
		c-0.2,0.3-0.3,0.6-0.3,0.9s0.1,0.7,0.3,0.9c0.2,0.2,0.5,0.4,0.9,0.4c0.3,0,0.5-0.1,0.7-0.2c0.2-0.1,0.3-0.3,0.4-0.5h0.5
		c-0.1,0.3-0.3,0.6-0.6,0.8c-0.3,0.2-0.6,0.3-0.9,0.3c-0.5,0-0.9-0.2-1.2-0.5c-0.3-0.3-0.5-0.7-0.5-1.2c0-0.5,0.2-0.9,0.5-1.2
		c0.3-0.3,0.7-0.5,1.2-0.5c0.3,0,0.7,0.1,0.9,0.3c0.3,0.2,0.5,0.5,0.6,0.8H143.5z"/>
	<path class="st2" d="M147.1,110.7c-0.1-0.2-0.3-0.4-0.5-0.5c-0.2-0.1-0.4-0.2-0.7-0.2c-0.3,0-0.6,0.1-0.8,0.4
		c-0.2,0.3-0.3,0.6-0.3,0.9s0.1,0.7,0.3,0.9c0.2,0.2,0.5,0.4,0.9,0.4c0.3,0,0.5-0.1,0.7-0.2c0.2-0.1,0.3-0.3,0.4-0.5h0.5
		c-0.1,0.3-0.3,0.6-0.6,0.8c-0.3,0.2-0.6,0.3-0.9,0.3c-0.5,0-0.9-0.2-1.2-0.5c-0.3-0.3-0.5-0.7-0.5-1.2c0-0.5,0.2-0.9,0.5-1.2
		c0.3-0.3,0.7-0.5,1.2-0.5c0.3,0,0.7,0.1,0.9,0.3c0.3,0.2,0.5,0.5,0.6,0.8H147.1z"/>
	<path class="st2" d="M148.6,109.4h-0.4v-0.7h0.4V109.4z M148.2,113v-3.2h0.4v3.2H148.2z"/>
	<path class="st2" d="M149.1,111.4c0-0.5,0.2-0.9,0.5-1.2c0.3-0.3,0.7-0.5,1.2-0.5c0.5,0,0.9,0.2,1.2,0.5c0.3,0.3,0.5,0.7,0.5,1.2
		c0,0.5-0.2,0.9-0.5,1.2c-0.3,0.3-0.7,0.5-1.2,0.5c-0.5,0-0.9-0.2-1.2-0.5C149.2,112.2,149.1,111.8,149.1,111.4z M149.5,111.4
		c0,0.4,0.1,0.7,0.4,0.9c0.2,0.3,0.5,0.4,0.9,0.4c0.3,0,0.6-0.1,0.9-0.4c0.2-0.3,0.4-0.6,0.4-0.9c0-0.4-0.1-0.7-0.4-0.9
		c-0.2-0.2-0.5-0.4-0.9-0.4c-0.3,0-0.6,0.1-0.8,0.4C149.6,110.7,149.5,111,149.5,111.4z M150.7,109.3h-0.3l0.6-1h0.4L150.7,109.3z"
		/>
	<path class="st2" d="M152.9,109.7h0.4v0.4c0.1-0.1,0.3-0.3,0.4-0.3c0.2-0.1,0.4-0.1,0.6-0.1c0.2,0,0.4,0,0.6,0.1
		c0.2,0.1,0.3,0.2,0.4,0.4c0.1,0.1,0.1,0.3,0.2,0.4c0,0.2,0,0.4,0,0.7v1.7h-0.4v-1.8c0-0.4-0.1-0.7-0.2-0.8
		c-0.1-0.2-0.4-0.3-0.7-0.3c-0.2,0-0.4,0-0.5,0.1c-0.1,0.1-0.3,0.2-0.3,0.3c-0.1,0.1-0.1,0.2-0.1,0.3c0,0.1,0,0.3,0,0.6v1.6h-0.4
		V109.7z"/>
</g>
</svg>
