<?xml version="1.0" encoding="iso-8859-1"?>
<!-- Generator: Adobe Illustrator 19.0.0, SVG Export Plug-In . SVG Version: 6.00 Build 0)  -->
<svg version="1.1" id="Layer_1" xmlns="http://www.w3.org/2000/svg" xmlns:xlink="http://www.w3.org/1999/xlink" x="0px" y="0px"
	 viewBox="0 0 511.996 511.996" style="enable-background:new 0 0 511.996 511.996;" xml:space="preserve">
<g>
	<path style="fill:#E8EDEE;" d="M238.201,369.378l-52.824,47.642v94.958h141.241v-94.835l-52.18-47.81
		C263.695,359.589,249.298,359.271,238.201,369.378"/>
	<g>
		<path style="fill:#B0BAC1;" d="M172.714,427.625c-7.424,6.771-18.865,6.506-25.971-0.6c-7.53-7.53-7.309-19.809,0.494-27.065
			l9.71-8.854l-23.755-21.769c-10.743-9.746-25.141-10.063-36.228,0.044l-52.833,47.642v94.958h141.241v-94.835l-0.433-0.397
			L172.714,427.625z"/>
		<path style="fill:#B0BAC1;" d="M415.676,369.333c-10.743-9.746-25.141-10.063-36.237,0.044l-24.188,21.822l9.481,8.73
			c7.821,7.247,8.06,19.544,0.512,27.092l0,0c-7.097,7.097-18.503,7.371-25.935,0.636l-12.262-11.026l-0.433,0.397v94.949h141.241
			v-94.826L415.676,369.333z"/>
	</g>
	<path style="fill:#434C6D;" d="M223.014,330.889l-75.776,69.067c-7.804,7.256-8.024,19.535-0.494,27.065
		c7.106,7.106,18.547,7.371,25.971,0.6l65.483-58.244c11.096-10.108,25.494-9.79,36.237-0.044l64.874,58.324
		c7.433,6.735,18.838,6.462,25.935-0.636l0,0c7.548-7.548,7.309-19.844-0.512-27.092l-75.087-69.111
		C270.842,313.402,241.782,313.428,223.014,330.889"/>
	<polygon style="fill:#B0BAC1;" points="238.342,511.98 273.652,511.98 273.652,459.015 238.342,459.015 	"/>
	<g>
		<polygon style="fill:#E8EDEE;" points="97.1,511.98 132.411,511.98 132.411,459.015 97.1,459.015 		"/>
		<polygon style="fill:#E8EDEE;" points="379.583,511.98 414.893,511.98 414.893,459.015 379.583,459.015 		"/>
	</g>
	<g>
		<path style="fill:#2D3751;" d="M185.563,365.022l-37.164-34.198c-18.803-17.426-47.863-17.399-66.631,0.062L5.993,399.953
			c-7.795,7.256-8.015,19.535-0.486,27.074c7.106,7.097,18.538,7.371,25.962,0.6l65.492-58.244
			c11.096-10.116,25.485-9.79,36.228-0.053l23.985,21.566L185.563,365.022z"/>
		<path style="fill:#2D3751;" d="M505.973,399.926l-75.087-69.102c-18.803-17.426-47.863-17.399-66.631,0.062l-37.447,34.136
			l28.275,26.024l24.364-21.663c11.087-10.116,25.485-9.79,36.228-0.053l64.874,58.324c7.433,6.744,18.838,6.462,25.935-0.627
			v-0.009C514.032,419.479,513.794,407.174,505.973,399.926"/>
	</g>
	<path style="fill:#F3D55B;" d="M255.997,0.015c-53.628,0.009-97.103,43.441-97.103,97.068c0,22.449,8.545,42.417,20.427,59.524
		c9.913,14.274,18.926,27.825,27.604,41.295c17.646,27.418,33.942,55.676,49.073,84.559c15.13-28.884,31.426-57.141,49.073-84.559
		c8.678-13.471,17.69-27.021,27.604-41.295c11.882-17.108,20.427-37.076,20.427-59.524C353.1,43.455,309.624,0.023,255.997,0.015"/>
	<g>
		<path style="fill:#24AE5F;" d="M255.997,185.359c-4.882,0-8.828-3.946-8.828-8.828V35.291c0-4.882,3.946-8.828,8.828-8.828
			c4.882,0,8.828,3.946,8.828,8.828v141.241C264.824,181.414,260.879,185.359,255.997,185.359"/>
		<path style="fill:#24AE5F;" d="M255.997,173.592c-12.606,0-23.834-6.065-33.377-18.035c-3.046-3.814-2.428-9.366,1.386-12.403
			c3.822-3.054,9.366-2.419,12.403,1.386c6.206,7.777,12.429,11.396,19.588,11.396c12.729,0,26.483-7.883,26.483-20.604
			c0-12.314-13.692-20.595-26.483-20.595c-21.222,0-44.138-14.618-44.138-38.25s22.916-38.259,44.138-38.259
			c17.028,0,27.207,10.293,33.377,18.035c3.046,3.814,2.428,9.375-1.386,12.403c-3.822,3.054-9.366,2.419-12.403-1.386
			c-6.462-8.095-12.138-11.396-19.588-11.396c-12.791,0-26.483,8.28-26.483,20.604s13.692,20.595,26.483,20.595
			c21.222,0,44.138,14.618,44.138,38.25S277.218,173.592,255.997,173.592"/>
		<path style="fill:#24AE5F;" d="M229.514,176.532c-4.882,0-8.828-3.946-8.828-8.828v-35.31c0-4.882,3.946-8.828,8.828-8.828
			s8.828,3.946,8.828,8.828v35.31C238.342,172.586,234.396,176.532,229.514,176.532"/>
		<path style="fill:#24AE5F;" d="M282.48,88.256c-4.882,0-8.828-3.946-8.828-8.828v-35.31c0-4.882,3.946-8.828,8.828-8.828
			c4.882,0,8.828,3.946,8.828,8.828v35.31C291.307,84.31,287.361,88.256,282.48,88.256"/>
	</g>
</g>
<g>
</g>
<g>
</g>
<g>
</g>
<g>
</g>
<g>
</g>
<g>
</g>
<g>
</g>
<g>
</g>
<g>
</g>
<g>
</g>
<g>
</g>
<g>
</g>
<g>
</g>
<g>
</g>
<g>
</g>
</svg>
