<?xml version="1.0" encoding="utf-8"?>
<!-- Generator: Adobe Illustrator 19.2.1, SVG Export Plug-In . SVG Version: 6.00 Build 0)  -->
<svg version="1.1" id="Layer_1" xmlns="http://www.w3.org/2000/svg" xmlns:xlink="http://www.w3.org/1999/xlink" x="0px" y="0px"
	 viewBox="0 0 468 485" style="enable-background:new 0 0 468 485;" xml:space="preserve">
<style type="text/css">
	.st0{fill:#FCB71A;}
	.st1{fill:#F89525;}
	.st2{fill:#FFFFFF;}
</style>
<g>
	<polygon class="st0" points="233.5,460.5 293.5,140 354.5,97.5 233.5,12 115,97.5 177,141 	"/>
	<g>
		<polygon class="st1" points="365.5,153 373.5,217 332.5,247.5 346.5,166.5 		"/>
		<polygon class="st1" points="378,264 389,322.5 305.5,390 325,302 		"/>
	</g>
	<g>
		<polygon class="st1" points="105,153 97,217 138,247.5 124,166.5 		"/>
		<polygon class="st1" points="92.5,264 81.5,327 165,390 150,301.5 		"/>
	</g>
	<g>
		<g>
			<g>
				<path class="st2" d="M36.3,465.2l-0.1,0.4h-1.3l0.4-0.9l17.2-40.5c0.2-0.4,0.9-0.4,1.1,0l17.2,40.5l0.4,0.9h-1.3l-0.1-0.4
					L53,425.9L36.3,465.2z"/>
				<g>
					<path class="st2" d="M35.2,464.9c0,0.1,0.9-0.5-0.3-0.5c0.4,0.5,0.7,0.9,1.1,1.4c5.7-13.8,11.6-27.4,17.4-41.1
						c-0.4,1-1.1-0.6-0.7,0.4c0.2,0.4,0.3,0.8,0.5,1.2c0.7,1.6,1.4,3.3,2.1,4.9c2,4.7,4,9.5,6,14.2c2.9,6.8,5.8,13.6,8.6,20.4
						c0.4-0.5,0.7-0.9,1.1-1.4c-1,0-0.1,1.1-0.6-0.3c-0.5-1.3-1.1-2.5-1.6-3.8c-1.9-4.5-3.8-9.1-5.8-13.6c-3-7.2-6.1-14.3-9.1-21.5
						c-0.3-0.7-1.6-0.7-1.9,0c-5.5,13.1-11.1,26.2-16.6,39.3c-0.6,1.3,1.4,2.5,1.9,1.1c5.5-13.1,11.1-26.2,16.6-39.3
						c-0.6,0-1.3,0-1.9,0c2.8,6.5,5.5,13.1,8.3,19.6c2.7,6.4,6.3,13.3,8.3,19.7c0.2,0.5,0.6,0.8,1.1,0.8c0.4,0,0.9,0,1.3,0
						c0.7,0,1.4-0.7,1.1-1.4c-2.9-7-5.9-14-8.9-20.9c-2.1-5-4.2-9.9-6.3-14.9c-0.8-2-1.5-5.4-3.4-6.6c-0.3-0.2-0.8-0.2-1.1,0
						c-1.8,1.1-2.4,4.1-3.1,5.9c-2.1,4.9-4.1,9.8-6.2,14.6c-3.1,7.3-6.2,14.5-9.2,21.9c-0.3,0.7,0.4,1.4,1.1,1.4c0.4,0,0.9,0,1.3,0
						c0.5,0,0.9-0.3,1.1-0.8c0-0.1,0.1-0.2,0.1-0.4C37.8,464.1,35.7,463.5,35.2,464.9z"/>
				</g>
			</g>
			<g>
				<path class="st2" d="M73.1,424.5l-0.1-0.7h1.2l0.1,0.5l8.1,38.5l13.9-38.6c0.2-0.5,0.9-0.5,1.1,0l13.9,38.6l8.1-38.5l0.1-0.5
					h1.2l-0.1,0.7l-8.5,40.5c-0.1,0.6-0.9,0.6-1.1,0.1l-14-38.9l-14,38.9c-0.2,0.6-1,0.5-1.1-0.1L73.1,424.5z"/>
				<g>
					<path class="st2" d="M74.2,424.2c0-0.2-0.1-0.5-0.1-0.7c-0.4,0.5-0.7,0.9-1.1,1.4c0.9,0,0.1-1,0.3,0.2c0.2,1.2,0.5,2.3,0.7,3.5
						c0.9,4.4,1.9,8.9,2.8,13.3c1.5,7.1,3,14.1,4.5,21.2c0.2,1.2,1.8,1,2.2,0c4.6-12.8,9.2-25.7,13.8-38.5c-0.4,1.2-1.4-0.8-0.6,1.3
						c0.5,1.4,1,2.9,1.6,4.3c1.6,4.5,3.3,9.1,4.9,13.6c2.3,6.4,4.6,12.9,6.9,19.3c0.3,1,1.9,1.2,2.2,0c1.4-6.7,2.8-13.5,4.3-20.2
						c1-4.6,1.9-9.1,2.9-13.7c0.3-1.3,0.5-2.6,0.8-3.9c0.3-1.4-0.4-0.4,0.4-0.4c-0.4-0.5-0.7-0.9-1.1-1.4
						c-2.2,13.8-5.7,27.5-8.6,41.2c0.2-0.8,1.3,0.9,0.5-1.2c-0.5-1.4-1-2.8-1.5-4.2c-1.6-4.5-3.2-9-4.8-13.4
						c-2.4-6.6-4.8-13.3-7.2-19.9c-0.4-1.1-1.8-1.1-2.2,0c-4.7,13-9.3,25.9-14,38.9c0.4-1.2,1.2,0.7,0.7-1.4
						c-0.3-1.5-0.6-2.9-0.9-4.4c-1-4.7-2-9.3-2.9-14C77.1,438,75.6,431.1,74.2,424.2c-0.3-1.4-2.5-0.8-2.2,0.6
						c1.5,7.2,3,14.5,4.6,21.7c1,4.6,1.9,9.1,2.9,13.7c0.4,1.8,0.4,4.8,1.9,6.1c0.4,0.3,0.9,0.5,1.4,0.2c1.5-1,1.8-3.1,2.4-4.8
						c1.6-4.5,3.2-9,4.9-13.5c2.6-7.3,5.2-14.5,7.9-21.8c-0.7,0-1.4,0-2.2,0c2.5,7,5,13.9,7.5,20.9c1.7,4.6,3.3,9.2,5,13.8
						c0.6,1.8,1,4.3,2.6,5.3c0.5,0.3,1,0.1,1.4-0.2c1.5-1.3,1.5-4.2,1.9-6.1c1-4.9,2.1-9.8,3.1-14.7c1.5-7.1,3.3-14.3,4.5-21.5
						c0.1-0.7-0.3-1.4-1.1-1.4c-0.4,0-0.8,0-1.2,0c-0.5,0-1,0.3-1.1,0.8c-3.1,12.9-5.5,26-8.2,39c0.7,0,1.4,0,2.2,0
						c-2.5-7.1-5.1-14.1-7.6-21.2c-1.6-4.3-3.1-8.7-4.7-13c-0.6-1.8-1-4.3-2.6-5.4c-0.3-0.2-0.8-0.2-1.1,0c-1.5,1-1.8,3.1-2.4,4.8
						c-1.6,4.5-3.3,9.1-4.9,13.6c-2.5,7.1-5.1,14.1-7.6,21.2c0.7,0,1.4,0,2.2,0c-2.7-13-5.1-26.1-8.2-39c-0.1-0.5-0.6-0.8-1.1-0.8
						c-0.4,0-0.8,0-1.2,0c-0.8,0-1.2,0.7-1.1,1.4c0,0.2,0.1,0.5,0.1,0.7C72.2,426.2,74.4,425.6,74.2,424.2z"/>
				</g>
			</g>
			<g>
				<path class="st2" d="M124,465.2l-0.1,0.4h-1.3l0.4-0.9l17.2-40.5c0.2-0.4,0.9-0.4,1.1,0l17.2,40.5l0.4,0.9h-1.3l-0.1-0.4
					l-16.6-39.3L124,465.2z"/>
				<g>
					<path class="st2" d="M122.9,464.9c0,0.1,0.9-0.5-0.3-0.5c0.4,0.5,0.7,0.9,1.1,1.4c5.7-13.8,11.6-27.4,17.4-41.1
						c-0.4,1-1.1-0.6-0.7,0.4c0.2,0.4,0.3,0.8,0.5,1.2c0.7,1.6,1.4,3.3,2.1,4.9c2,4.7,4,9.5,6,14.2c2.9,6.8,5.8,13.6,8.6,20.4
						c0.4-0.5,0.7-0.9,1.1-1.4c-1,0-0.1,1.1-0.6-0.3c-0.5-1.3-1.1-2.5-1.6-3.8c-1.9-4.5-3.8-9.1-5.8-13.6c-3-7.2-6.1-14.3-9.1-21.5
						c-0.3-0.7-1.6-0.7-1.9,0c-5.5,13.1-11.1,26.2-16.6,39.3c-0.6,1.3,1.4,2.5,1.9,1.1c5.5-13.1,11.1-26.2,16.6-39.3
						c-0.6,0-1.3,0-1.9,0c2.8,6.5,5.5,13.1,8.3,19.6c2.7,6.4,6.3,13.3,8.3,19.7c0.2,0.5,0.6,0.8,1.1,0.8c0.4,0,0.9,0,1.3,0
						c0.7,0,1.4-0.7,1.1-1.4c-2.9-7-5.9-14-8.9-20.9c-2.1-5-4.2-9.9-6.3-14.9c-0.8-2-1.5-5.4-3.4-6.6c-0.3-0.2-0.8-0.2-1.1,0
						c-1.8,1.1-2.4,4.1-3.1,5.9c-2.1,4.9-4.1,9.8-6.2,14.6c-3.1,7.3-6.2,14.5-9.2,21.9c-0.3,0.7,0.4,1.4,1.1,1.4c0.4,0,0.9,0,1.3,0
						c0.5,0,0.9-0.3,1.1-0.8c0-0.1,0.1-0.2,0.1-0.4C125.5,464.1,123.3,463.5,122.9,464.9z"/>
				</g>
			</g>
			<g>
				<path class="st2" d="M165.5,424.4v-0.6h1.2v0.6v39.9h21.9h0.6v1.2h-0.6h-22.5c-0.4,0-0.6-0.2-0.6-0.6V424.4z"/>
				<g>
					<path class="st2" d="M166.6,424.4c0-0.2,0-0.4,0-0.6c-0.4,0.4-0.8,0.8-1.1,1.1c0.4,0,0.8,0,1.2,0c-0.4-0.4-0.8-0.8-1.1-1.1
						c0,13.5,0,27,0,40.5c0,0.6,0.5,1.1,1.1,1.1c7.5,0,15,0,22.5,0c-0.4-0.4-0.8-0.8-1.1-1.1c0,0.4,0,0.8,0,1.2
						c0.4-0.4,0.8-0.8,1.1-1.1c-5.6,0-11.1,0-16.7,0c-1.5,0-3.1,0-4.6,0c-1.6,0-1.3-0.3-1.3,0.5c0-1.6,0-3.1,0-4.7
						C166.6,448.2,166.6,436.3,166.6,424.4c0-1.5-2.3-1.5-2.3,0c0,12.7,0,25.4,0,38.2c0,4.3,1.5,4.1,5.6,4.1c6.4,0,12.8,0,19.2,0
						c0.6,0,1.1-0.5,1.1-1.1c0-0.4,0-0.8,0-1.2c0-0.6-0.5-1.1-1.1-1.1c-7.5,0-15,0-22.5,0c0.4,0.4,0.8,0.8,1.1,1.1
						c0-13.5,0-27,0-40.5c0-0.6-0.5-1.1-1.1-1.1c-0.4,0-0.8,0-1.2,0c-0.6,0-1.1,0.5-1.1,1.1c0,0.2,0,0.4,0,0.6
						C164.4,425.8,166.6,425.8,166.6,424.4z"/>
				</g>
			</g>
			<g>
				<path class="st2" d="M196.9,424.4v-0.6h1.2v0.6v40.5v0.6h-1.2v-0.6V424.4z"/>
				<g>
					<path class="st2" d="M198,424.4c0-0.2,0-0.4,0-0.6c-0.4,0.4-0.8,0.8-1.1,1.1c0.4,0,0.8,0,1.2,0c-0.4-0.4-0.8-0.8-1.1-1.1
						c0,13.9,0,27.8,0,41.8c0.4-0.4,0.8-0.8,1.1-1.1c-0.4,0-0.8,0-1.2,0c0.4,0.4,0.8,0.8,1.1,1.1C198,451.8,198,438.1,198,424.4
						c0-1.5-2.3-1.5-2.3,0c0,13.7,0,27.4,0,41.2c0,0.6,0.5,1.1,1.1,1.1c0.4,0,0.8,0,1.2,0c0.6,0,1.1-0.5,1.1-1.1
						c0-13.9,0-27.8,0-41.8c0-0.6-0.5-1.1-1.1-1.1c-0.4,0-0.8,0-1.2,0c-0.6,0-1.1,0.5-1.1,1.1c0,0.2,0,0.4,0,0.6
						C195.8,425.8,198,425.8,198,424.4z"/>
				</g>
			</g>
		</g>
		<g>
			<g>
				<path class="st2" d="M282.6,447.2H282V446h0.6h17.3c0.4,0,0.6,0.2,0.6,0.6c0,11.6-8.1,20.9-17.9,20.9c-9.9,0-18.1-9.3-18.1-20.9
					c0-11.6,8.2-20.9,18.1-20.9c6.8-0.1,13.1,4.2,15.5,8.9l0.4,0.9h-1.3l-0.2-0.3c-2.2-4.4-8.1-8.4-14.4-8.3
					c-9.3,0-16.9,8.8-16.9,19.7c0,10.9,7.6,19.7,16.9,19.7c9.2,0,16.7-8.8,16.7-19H282.6z"/>
				<g>
					<path class="st2" d="M282.6,446.1c-0.2,0-0.4,0-0.6,0c0.4,0.4,0.8,0.8,1.1,1.1c0-0.4,0-0.8,0-1.2c-0.4,0.4-0.8,0.8-1.1,1.1
						c5.2,0,10.4,0,15.5,0c0.8,0,1.5,0,2.3,0c0.2,0-2.5,9-3,9.9c-2.7,5.5-8.2,9.1-14.3,9.4c-14.2,0.6-19.2-17.1-15.4-27.9
						c4.7-13.3,24.1-16,30.4-2.3c0.3-0.6,0.6-1.1,1-1.7c-1.1,0-0.5,0.3-0.5,0.3c-0.5-0.8-0.9-1.7-1.6-2.4c-1.7-1.9-3.6-3.3-5.8-4.6
						c-4.4-2.4-9.7-2.4-14.3-0.6c-9.4,3.7-12.7,14.9-11.2,24.1c1.5,9.2,9.4,16.5,18.8,16.1c10.2-0.5,16.2-11,16.6-20.1
						c0-0.6-0.5-1.1-1.1-1.1C293.7,446.1,288.2,446.1,282.6,446.1c-1.5,0-1.5,2.3,0,2.3c5.6,0,11.1,0,16.7,0
						c-0.4-0.4-0.8-0.8-1.1-1.1c-0.3,9-6.1,17.5-15.6,17.9c-9.9,0.4-15.5-10-15.7-18.5c-0.3-9.1,6.3-18.1,15.7-18.5
						c5.4-0.2,10.8,3.1,13.4,7.7c0.6,1,1.4,0.9,2.5,0.9c0.9,0,1.3-0.9,1-1.7c-5.5-12.2-23-13.7-31-3.2c-8.2,10.8-6.4,30.3,7.7,35.6
						c14.1,5.3,25.1-7.4,25.5-20.7c0.1-3.5-16.9-1.7-19.6-1.7c-0.6,0-1.1,0.5-1.1,1.1c0,0.4,0,0.8,0,1.2c0,0.6,0.5,1.1,1.1,1.1
						c0.2,0,0.4,0,0.6,0C284.1,448.4,284.1,446.1,282.6,446.1z"/>
				</g>
			</g>
			<g>
				<path class="st2" d="M306.4,467.2l-0.1,0.4H305l0.4-0.9l17.4-40.5c0.2-0.4,0.9-0.4,1.1,0l17.4,40.5l0.4,0.9h-1.3l-0.1-0.4
					l-16.9-39.3L306.4,467.2z"/>
				<g>
					<path class="st2" d="M305.4,466.9c0,0.1,0.9-0.5-0.4-0.5c0.4,0.5,0.7,0.9,1.1,1.4c5.8-13.8,11.8-27.4,17.6-41.1
						c-0.4,0.9-1.1-0.6-0.7,0.4c0.2,0.4,0.3,0.8,0.5,1.2c0.7,1.6,1.4,3.3,2.1,4.9c2,4.7,4.1,9.5,6.1,14.2c2.9,6.8,5.9,13.6,8.8,20.4
						c0.4-0.5,0.7-0.9,1.1-1.4c-1,0-0.1,1.1-0.7-0.2c-0.5-1.2-1-2.4-1.6-3.7c-1.9-4.4-3.8-8.9-5.7-13.3c-3.1-7.3-6.3-14.6-9.4-21.9
						c-0.3-0.7-1.6-0.7-1.9,0c-5.6,13.1-11.2,26.2-16.9,39.3c-0.6,1.3,1.4,2.5,1.9,1.1c5.6-13.1,11.2-26.2,16.9-39.3
						c-0.6,0-1.3,0-1.9,0c2.9,6.7,5.8,13.4,8.6,20.1c2.7,6.3,6.2,13,8.2,19.3c0.2,0.5,0.6,0.8,1.1,0.8c0.4,0,0.9,0,1.3,0
						c0.7,0,1.4-0.7,1.1-1.4c-2.9-7-6-14-9-20.9c-2.1-5-4.3-9.9-6.4-14.9c-0.8-1.9-1.5-5.4-3.4-6.6c-0.3-0.2-0.8-0.2-1.1,0
						c-1.8,1.1-2.4,4.1-3.2,5.9c-2.1,4.9-4.2,9.8-6.3,14.6c-3.1,7.3-6.3,14.5-9.4,21.9c-0.3,0.7,0.4,1.4,1.1,1.4c0.4,0,0.9,0,1.3,0
						c0.5,0,0.9-0.3,1.1-0.8c0-0.1,0.1-0.2,0.1-0.4C308,466.1,305.8,465.5,305.4,466.9z"/>
				</g>
			</g>
			<g>
				<path class="st2" d="M349.7,466.9v0.6h-1.2v-0.6v-40.5c0-0.6,0.9-0.8,1.1-0.2l17.5,39.3l17.4-39.3c0.2-0.6,1.1-0.4,1.1,0.2
					l0.1,40.5v0.6h-1.2v-0.6l-0.1-37.7l-16.8,38c-0.2,0.4-0.9,0.4-1.1,0l-16.9-38V466.9z"/>
				<g>
					<path class="st2" d="M348.6,466.9c0,0.2,0,0.4,0,0.6c0.4-0.4,0.8-0.8,1.1-1.1c-0.4,0-0.8,0-1.2,0c0.4,0.4,0.8,0.8,1.1,1.1
						c0-6.5,0-12.9,0-19.4c0-5,0-9.9,0-14.9c0-1.7,0-3.3,0-5c0-0.5,0-0.9,0-1.4c0-1.3-0.4,1.2-0.9-0.2c5.8,13.1,11.6,26.2,17.4,39.3
						c0.3,0.7,1.6,0.7,1.9,0c5.8-13.1,11.6-26.1,17.4-39.2c-0.2,0.6-0.9-1-0.9,1c0,1.6,0,3.1,0,4.7c0,4.9,0,9.7,0,14.6
						c0,6.8,0,13.6,0,20.4c0.4-0.4,0.8-0.8,1.1-1.1c-0.4,0-0.8,0-1.2,0c0.4,0.4,0.8,0.8,1.1,1.1c0-12.8,0-25.6-0.1-38.3
						c0-1-1.6-1.6-2.1-0.6c-5.6,12.6-11.2,25.3-16.8,37.9c0.4-0.8,1.1,0.5,0.3-1.3c-0.6-1.4-1.2-2.8-1.8-4.1
						c-1.9-4.4-3.9-8.7-5.8-13.1c-2.9-6.5-5.8-13-8.6-19.4c-0.5-1.1-2.1-0.5-2.1,0.6C348.6,441.8,348.6,454.3,348.6,466.9
						c0,1.5,2.3,1.5,2.3,0c0-12.6,0-25.1,0-37.7c-0.7,0.2-1.4,0.4-2.1,0.6c3,6.8,6,13.6,9,20.3c1.9,4.3,3.8,8.6,5.7,12.8
						c0.8,1.7,1.3,4.5,3.1,5.5c0.3,0.2,0.8,0.2,1.1,0c1.6-1,2.1-3.3,2.8-4.9c2-4.5,4-9,6-13.4c3-6.8,6-13.6,9-20.3
						c-0.7-0.2-1.4-0.4-2.1-0.6c0,12.8,0.1,25.6,0.1,38.3c0,0.6,0.5,1.1,1.1,1.1c0.4,0,0.8,0,1.2,0c0.6,0,1.1-0.5,1.1-1.1
						c0-7.1,0-14.3,0-21.4c0-5,0-10,0-15c0-2,0.6-4.5-0.8-6.1c-0.3-0.4-0.9-0.4-1.4-0.2c-1.8,0.9-2.4,3.7-3.1,5.4
						c-2,4.5-4,9.1-6,13.6c-3.1,7-6.2,14-9.3,21c0.6,0,1.3,0,1.9,0c-3.1-7-6.2-14-9.3-21c-2-4.5-4-9.1-6-13.6
						c-0.8-1.7-1.3-4.5-3.1-5.4c-0.4-0.2-1-0.2-1.4,0.2c-1.3,1.5-0.8,3.5-0.8,5.4c0,4.9,0,9.8,0,14.7c0,7.5,0,14.9,0,22.4
						c0,0.6,0.5,1.1,1.1,1.1c0.4,0,0.8,0,1.2,0c0.6,0,1.1-0.5,1.1-1.1c0-0.2,0-0.4,0-0.6C350.8,465.5,348.6,465.5,348.6,466.9z"/>
				</g>
			</g>
			<g>
				<path class="st2" d="M425.9,425.7h0.6v1.2h-0.6h-27v19h19.6h0.6v1.2h-0.6h-19.6v19h27h0.6v1.2h-0.6h-27.6
					c-0.4,0-0.6-0.2-0.6-0.6v-19.7V446v-19.7c0-0.4,0.2-0.6,0.6-0.6H425.9z"/>
				<g>
					<path class="st2" d="M425.9,426.9c0.2,0,0.4,0,0.6,0c-0.4-0.4-0.8-0.8-1.1-1.1c0,0.4,0,0.8,0,1.2c0.4-0.4,0.8-0.8,1.1-1.1
						c-9.2,0-18.4,0-27.6,0c-0.6,0-1.1,0.5-1.1,1.1c0,6.3,0,12.7,0,19c0,0.6,0.5,1.1,1.1,1.1c6.7,0,13.5,0,20.2,0
						c-0.4-0.4-0.8-0.8-1.1-1.1c0,0.4,0,0.8,0,1.2c0.4-0.4,0.8-0.8,1.1-1.1c-6.7,0-13.5,0-20.2,0c-0.6,0-1.1,0.5-1.1,1.1
						c0,6.3,0,12.7,0,19c0,0.6,0.5,1.1,1.1,1.1c9.2,0,18.4,0,27.6,0c-0.4-0.4-0.8-0.8-1.1-1.1c0,0.4,0,0.8,0,1.2
						c0.4-0.4,0.8-0.8,1.1-1.1c-8.5,0-17.1,0-25.6,0c-0.6,0-1.3,0-1.9,0c-1.1,0-0.2,0.3-0.2,0.3c0-1.9,0-3.8,0-5.7
						c0-4.6,0-9.1,0-13.7c0-4,0-8,0-12c0-2.5,0-4.9,0-7.4c0-1.8-0.9-0.9,0.6-0.9C408.2,426.9,417.1,426.9,425.9,426.9
						c1.5,0,1.5-2.3,0-2.3c-9.2,0-18.4,0-27.6,0c-2.9,0-1.8,6.2-1.8,7.7c0,5,0,9.9,0,14.9c0,4.9,0,9.7,0,14.6c0,2-1.1,6.8,2.1,6.8
						c9.3,0,18.5,0,27.8,0c0.6,0,1.1-0.5,1.1-1.1c0-0.4,0-0.8,0-1.2c0-0.6-0.5-1.1-1.1-1.1c-9.2,0-18.4,0-27.6,0
						c0.4,0.4,0.8,0.8,1.1,1.1c0-6.3,0-12.7,0-19c-0.4,0.4-0.8,0.8-1.1,1.1c6.7,0,13.5,0,20.2,0c0.6,0,1.1-0.5,1.1-1.1
						c0-0.4,0-0.8,0-1.2c0-0.6-0.5-1.1-1.1-1.1c-6.7,0-13.5,0-20.2,0c0.4,0.4,0.8,0.8,1.1,1.1c0-6.3,0-12.7,0-19
						c-0.4,0.4-0.8,0.8-1.1,1.1c9.2,0,18.4,0,27.6,0c0.6,0,1.1-0.5,1.1-1.1c0-0.4,0-0.8,0-1.2c0-0.6-0.5-1.1-1.1-1.1
						c-0.2,0-0.4,0-0.6,0C424.5,424.6,424.5,426.9,425.9,426.9z"/>
				</g>
			</g>
			<g>
				<path class="st2" d="M460,436.5v0.6h-1.2v-0.6c0-5.3-5.4-9.5-11.9-9.5c-6.5,0-11.9,4.2-11.9,9.5c0,9.5,26.4,9.5,26.3,20.3
					c0,5.7-6.4,10.8-14.4,10.8c-8.2,0-14.4-5-14.4-10.8v-0.6h1.2v0.6c0,5.3,6,9.5,13.2,9.5c7,0,13.2-4.3,13.2-9.5
					c0-9.6-26.3-9.5-26.3-20.3c0-5.8,5.8-10.8,13.1-10.8C454.3,425.7,460,430.7,460,436.5z"/>
				<g>
					<path class="st2" d="M458.9,436.5c0,0.2,0,0.4,0,0.6c0.4-0.4,0.8-0.8,1.1-1.1c-0.4,0-0.8,0-1.2,0c0.4,0.4,0.8,0.8,1.1,1.1
						c0-9.2-10-12.5-17.7-10.6c-6.6,1.7-11.6,10-5.7,15.2c5.9,5.2,14.8,5.5,21,10.3c6.6,5.1-0.7,12.1-6.4,13.9
						c-6.9,2.1-17.5-1.3-17.5-9.7c-0.4,0.4-0.8,0.8-1.1,1.1c0.4,0,0.8,0,1.2,0c-0.4-0.4-0.8-0.8-1.1-1.1c0,8.5,10.2,12.6,17.6,11
						c6.3-1.4,14.8-7.8,9.4-14.7c-4.4-5.6-14.2-6.7-20.1-10c-6-3.4-5.3-9.8,0.3-13.6C446.4,424.3,458.3,427.6,458.9,436.5
						c0.1,1.4,2.3,1.4,2.3,0c-0.6-9.4-10.5-13.1-18.8-11.3c-6.3,1.4-13.2,9.9-8,16c4.9,5.7,13.7,6.9,20.2,10.3
						c6.8,3.6,4.3,10.1-2.2,12.7c-6.2,2.5-17.5,0.1-17.5-8.1c0-0.6-0.5-1.1-1.1-1.1c-0.4,0-0.8,0-1.2,0c-0.6,0-1.1,0.5-1.1,1.1
						c0,20.6,38.7,12.5,29.9-3.3c-3.4-6.1-13.4-7.7-19.2-10.4c-5.2-2.4-8.4-6.4-3.3-11.5c5.7-5.7,18.9-2.8,18.9,6.2
						c0,0.6,0.5,1.1,1.1,1.1c0.4,0,0.8,0,1.2,0c0.6,0,1.1-0.5,1.1-1.1c0-0.2,0-0.4,0-0.6C461.2,435,458.9,435,458.9,436.5z"/>
				</g>
			</g>
		</g>
	</g>
</g>
</svg>
