<?xml version="1.0" encoding="utf-8"?>
<!-- Generator: Adobe Illustrator 19.2.1, SVG Export Plug-In . SVG Version: 6.00 Build 0)  -->
<svg version="1.1" id="Layer_1" xmlns="http://www.w3.org/2000/svg" xmlns:xlink="http://www.w3.org/1999/xlink" x="0px" y="0px"
	 viewBox="0 0 1025 467" style="enable-background:new 0 0 1025 467;" xml:space="preserve">
<style type="text/css">
	.st0{fill:#FCB71A;}
	.st1{fill:#F89525;}
	.st2{fill:#FFFFFF;}
</style>
<g>
	<polygon class="st0" points="233.5,460.5 293.5,140 354.5,97.5 233.5,12 115,97.5 177,141 	"/>
	<g>
		<polygon class="st1" points="365.5,153 373.5,217 332.5,247.5 346.5,166.5 		"/>
		<polygon class="st1" points="378,264 389,322.5 305.5,390 325,302 		"/>
	</g>
	<g>
		<polygon class="st1" points="105,153 97,217 138,247.5 124,166.5 		"/>
		<polygon class="st1" points="92.5,264 81.5,327 165,390 150,301.5 		"/>
	</g>
	<g>
		<g>
			<g>
				<path class="st2" d="M452,183.4l-0.3,1.1h-3.7l1-2.5L498,66.1c0.5-1.2,2.5-1.2,3,0L550.1,182l1,2.5h-3.7l-0.3-1.1L499.5,71.2
					L452,183.4z"/>
				<g>
					<path class="st2" d="M448.3,182.4c-0.1,0.4-0.2,0.7-0.3,1.1c1.2-0.9,2.4-1.8,3.6-2.8c-1.2,0-2.5,0-3.7,0
						c1.2,1.6,2.4,3.2,3.6,4.7c0.6-1.3,1.4-3.3,2.5-5.9c1.9-4.5,3.8-9.1,5.8-13.6c6-14.1,11.9-28.2,17.9-42.3
						c5.8-13.7,11.6-27.3,17.4-41c1.7-4,3.4-8,5.1-12c0.3-0.8,0.7-1.6,1-2.4c0.2-0.6-3.8-1.4-3,0.5c8.8,20.7,17.6,41.5,26.4,62.2
						c5.3,12.5,10.6,25.1,15.9,37.6c1.6,3.9,3.3,7.8,4.9,11.6c0.4,1,0.8,1.9,1.2,2.9c0.1,0.2,0.2,0.5,0.3,0.7
						c-0.5-1.1,0.5,1.2,0.7,1.6c1.2-1.6,2.4-3.2,3.6-4.7c-1.2,0-2.5,0-3.7,0c1.2,0.9,2.4,1.8,3.6,2.8c-1.9-6-4.9-11.8-7.4-17.6
						c-5.5-13-11-26-16.5-39c-8.1-19.2-16.2-38.3-24.4-57.5c-1-2.5-5.4-2.5-6.5,0c-15.8,37.4-31.7,74.8-47.5,112.2
						c-1.9,4.4,4.6,8.2,6.5,3.8c15.8-37.4,31.7-74.8,47.5-112.2c-2.2,0-4.3,0-6.5,0c8,18.8,16,37.7,24,56.5
						c5.5,12.9,10.9,25.7,16.4,38.6c1.8,4.2,3.5,8.4,5.3,12.5c0.5,1.1,0.9,2.2,1.4,3.3c0.4,1,0.4,1.1,0.5,1.3
						c0.5,1.6,1.9,2.8,3.6,2.8c1.2,0,2.5,0,3.7,0c2.2,0,4.6-2.4,3.6-4.7c-8.5-20.7-17.4-41.2-26.1-61.7
						c-5.9-13.9-11.7-27.7-17.6-41.6c-1.8-4.2-3.6-8.4-5.4-12.6c-1.2-2.9-2.2-6.1-6.1-6.1c-3.9,0-4.9,3.2-6.1,6.1
						c-1.8,4.2-3.6,8.4-5.4,12.6c-5.9,13.9-11.7,27.7-17.6,41.6c-8.7,20.6-17.6,41.1-26.1,61.7c-1,2.3,1.4,4.7,3.6,4.7
						c1.2,0,2.5,0,3.7,0c1.7,0,3.1-1.2,3.6-2.8c0.1-0.4,0.2-0.7,0.3-1.1C457.1,179.8,449.8,177.8,448.3,182.4z"/>
				</g>
			</g>
			<g>
				<path class="st2" d="M557,67.2l-0.3-2.1h3.4l0.3,1.4l23.2,110.1l39.6-110.2c0.5-1.4,2.5-1.4,3,0l39.6,110.2L689,66.5l0.3-1.4
					h3.4l-0.3,2.1L668,183.1c-0.3,1.6-2.7,1.8-3.2,0.2L624.7,71.9l-40.1,111.3c-0.5,1.6-2.9,1.4-3.2-0.2L557,67.2z"/>
				<g>
					<path class="st2" d="M560.7,66.2c-0.1-0.7-0.2-1.4-0.3-2.1c-1.2,1.6-2.4,3.2-3.6,4.7c1.1,0,2.3,0,3.4,0
						c-1.2-0.9-2.4-1.8-3.6-2.8c4.4,18.2,7.8,36.7,11.6,55c4,18.8,7.9,37.7,11.9,56.5c0.8,3.9,6.1,3.2,7.2,0
						c7.9-22.1,15.9-44.2,23.8-66.3c4.5-12.5,9-24.9,13.4-37.4c0.8-2.2,1.6-4.3,2.3-6.5c-1.9,5.2-4.8-1.7-4,0.4
						c0.1,0.4,0.3,0.7,0.4,1.1c0.5,1.5,1.1,3,1.6,4.6c12.5,34.7,25,69.5,37.4,104.2c1.2,3.2,6.4,3.9,7.2,0
						c4-18.8,7.9-37.7,11.9-56.5c3.9-18.3,7.2-36.8,11.6-55c-1.2,0.9-2.4,1.8-3.6,2.8c1.1,0,2.3,0,3.4,0c-1.2-1.6-2.4-3.2-3.6-4.7
						c-3.6,22.4-9.3,44.6-14,66.9c-2.9,13.7-5.8,27.5-8.7,41.2c-0.7,3.1-1.3,6.2-2,9.4c-0.4,1.8,4.4,2.1,3.8,0.3
						c-0.4-1.1-0.8-2.1-1.1-3.2c-12.9-35.9-25.9-71.8-38.8-107.8c-1.3-3.6-5.9-3.6-7.2,0c-7.9,22-15.8,43.9-23.8,65.9
						c-4.6,12.7-9.1,25.3-13.7,38c-0.9,2.4-1.8,4.9-2.6,7.3c1.5-4.3,4.4,2,3.8-1.1c-0.3-1.4-0.6-2.8-0.9-4.2
						C576.2,139.9,568.4,103.1,560.7,66.2c-1-4.7-8.2-2.7-7.2,2c4.8,22.9,9.6,45.7,14.4,68.6c2.8,13.2,5.5,26.4,8.3,39.5
						c0.5,2.5,1.1,5.1,1.6,7.6c1.3,6.1,8.9,4.6,10.6-0.2c13.3-36.9,26.6-73.9,39.9-110.8c-2.4,0-4.8,0-7.2,0
						c7.9,22,15.8,43.9,23.8,65.9c4.6,12.7,9.1,25.3,13.7,38c0.9,2.4,1.8,4.9,2.6,7.3c1.9,5.3,9.4,5,10.6-0.6
						c4.4-20.8,8.7-41.5,13.1-62.3c3.9-18.3,8.5-36.7,11.5-55.2c0.4-2.4-1-4.7-3.6-4.7c-1.1,0-2.3,0-3.4,0c-1.6,0-3.2,1.1-3.6,2.8
						c-4.4,18.2-7.8,36.7-11.6,55c-4,18.8-7.9,37.7-11.9,56.5c2.4,0,4.8,0,7.2,0c-7.9-22.1-15.9-44.2-23.8-66.3
						c-4.5-12.5-9-24.9-13.4-37.4c-0.8-2.2-1.6-4.3-2.3-6.5c-2.2-6.1-8.9-3.9-10.6,1c-13.1,36.4-26.2,72.8-39.2,109.2
						c2.4,0,4.8,0,7.2,0c-4-18.8-7.9-37.7-11.9-56.5c-3.9-18.3-7.2-36.8-11.6-55c-0.4-1.6-2-2.8-3.6-2.8c-1.1,0-2.3,0-3.4,0
						c-2.6,0-4,2.4-3.6,4.7c0.1,0.7,0.2,1.4,0.3,2.1C554.2,73,561.4,70.9,560.7,66.2z"/>
				</g>
			</g>
			<g>
				<path class="st2" d="M702.4,183.4l-0.3,1.1h-3.7l1-2.5l49.1-115.9c0.5-1.2,2.5-1.2,3,0L800.5,182l1,2.5h-3.7l-0.3-1.1
					L749.9,71.2L702.4,183.4z"/>
				<g>
					<path class="st2" d="M698.8,182.4c-0.1,0.4-0.2,0.7-0.3,1.1c1.2-0.9,2.4-1.8,3.6-2.8c-1.2,0-2.5,0-3.7,0
						c1.2,1.6,2.4,3.2,3.6,4.7c0.6-1.3,1.4-3.3,2.5-5.9c1.9-4.5,3.8-9.1,5.8-13.6c6-14.1,11.9-28.2,17.9-42.3
						c5.8-13.7,11.6-27.3,17.4-41c1.7-4,3.4-8,5.1-12c0.3-0.8,0.7-1.6,1-2.4c0.2-0.6-3.8-1.4-3,0.5c8.8,20.7,17.6,41.5,26.4,62.2
						c5.3,12.5,10.6,25.1,15.9,37.6c1.6,3.9,3.3,7.8,4.9,11.6c0.4,1,0.8,1.9,1.2,2.9c0.1,0.2,0.2,0.5,0.3,0.7
						c-0.5-1.1,0.5,1.2,0.7,1.6c1.2-1.6,2.4-3.2,3.6-4.7c-1.2,0-2.5,0-3.7,0c1.2,0.9,2.4,1.8,3.6,2.8c-1.9-6-4.9-11.8-7.4-17.6
						c-5.5-13-11-26-16.5-39c-8.1-19.2-16.2-38.3-24.4-57.5c-1-2.5-5.4-2.5-6.5,0c-15.8,37.4-31.7,74.8-47.5,112.2
						c-1.9,4.4,4.6,8.2,6.5,3.8c15.8-37.4,31.7-74.8,47.5-112.2c-2.2,0-4.3,0-6.5,0c8,18.8,16,37.7,24,56.5
						c5.5,12.9,10.9,25.7,16.4,38.6c1.8,4.2,3.5,8.4,5.3,12.5c0.5,1.1,0.9,2.2,1.4,3.3c0.4,1,0.4,1.1,0.5,1.3
						c0.5,1.6,1.9,2.8,3.6,2.8c1.2,0,2.5,0,3.7,0c2.2,0,4.6-2.4,3.6-4.7c-8.5-20.7-17.4-41.2-26.1-61.7
						c-5.9-13.9-11.7-27.7-17.6-41.6c-1.8-4.2-3.6-8.4-5.4-12.6c-1.2-2.9-2.2-6.1-6.1-6.1c-3.9,0-4.9,3.2-6.1,6.1
						c-1.8,4.2-3.6,8.4-5.4,12.6c-5.9,13.9-11.7,27.7-17.6,41.6c-8.7,20.6-17.6,41.1-26.1,61.7c-0.9,2.3,1.4,4.7,3.6,4.7
						c1.2,0,2.5,0,3.7,0c1.7,0,3.1-1.2,3.6-2.8c0.1-0.4,0.2-0.7,0.3-1.1C707.5,179.8,700.3,177.8,698.8,182.4z"/>
				</g>
			</g>
			<g>
				<path class="st2" d="M821,66.8v-1.8h3.4v1.8v114.1H887h1.7v3.5H887h-64.3c-1,0-1.7-0.7-1.7-1.8V66.8z"/>
				<g>
					<path class="st2" d="M824.8,66.8c0-0.6,0-1.2,0-1.8c-1.3,1.3-2.5,2.5-3.8,3.8c1.1,0,2.3,0,3.4,0c-1.3-1.3-2.5-2.5-3.8-3.8
						c0,38.6,0,77.2,0,115.9c0,2,1.7,3.8,3.8,3.8c21.4,0,42.9,0,64.3,0c-1.3-1.3-2.5-2.5-3.8-3.8c0,1.2,0,2.3,0,3.5
						c1.3-1.3,2.5-2.5,3.8-3.8c-10.8,0-21.6,0-32.4,0c-7.7,0-15.4,0-23,0c-2.5,0-5,0-7.5,0c-0.7,0-1.5,0-2.2,0c-2.3,0,1.1-0.2,1.1,2
						c0-23.9,0-47.9,0-71.8C824.8,96.2,824.8,81.5,824.8,66.8c0-4.8-7.5-4.8-7.5,0c0,23.6,0,47.2,0,70.8c0,13,0,26,0,39
						c0,2.2-0.4,4.8,0.1,7c1.2,5.3,6.4,4.5,10.5,4.5c20.3,0,40.5,0,60.8,0c2,0,3.8-1.7,3.8-3.8c0-1.2,0-2.3,0-3.5
						c0-2-1.7-3.8-3.8-3.8c-21.4,0-42.9,0-64.3,0c1.3,1.3,2.5,2.5,3.8,3.8c0-38.6,0-77.2,0-115.9c0-2-1.7-3.8-3.8-3.8
						c-1.1,0-2.3,0-3.4,0c-2,0-3.8,1.7-3.8,3.8c0,0.6,0,1.2,0,1.8C817.3,71.7,824.8,71.7,824.8,66.8z"/>
				</g>
			</g>
			<g>
				<path class="st2" d="M910.9,66.8v-1.8h3.4v1.8v115.9v1.8h-3.4v-1.8V66.8z"/>
				<g>
					<path class="st2" d="M914.6,66.8c0-0.6,0-1.2,0-1.8c-1.3,1.3-2.5,2.5-3.8,3.8c1.1,0,2.3,0,3.4,0c-1.3-1.3-2.5-2.5-3.8-3.8
						c0,39.8,0,79.6,0,119.4c1.3-1.3,2.5-2.5,3.8-3.8c-1.1,0-2.3,0-3.4,0c1.3,1.3,2.5,2.5,3.8,3.8
						C914.6,145.3,914.6,106.1,914.6,66.8c0-4.8-7.5-4.8-7.5,0c0,39.2,0,78.4,0,117.6c0,2,1.7,3.8,3.8,3.8c1.1,0,2.3,0,3.4,0
						c2,0,3.8-1.7,3.8-3.8c0-39.8,0-79.6,0-119.4c0-2-1.7-3.8-3.8-3.8c-1.1,0-2.3,0-3.4,0c-2,0-3.8,1.7-3.8,3.8c0,0.6,0,1.2,0,1.8
						C907.1,71.7,914.6,71.7,914.6,66.8z"/>
				</g>
			</g>
		</g>
		<g>
			<g>
				<path class="st2" d="M493.7,345.2H492v-3.5h1.7h49.4c1,0,1.7,0.7,1.7,1.8c0,33.2-23.1,59.7-51.3,59.7
					c-28.3,0-51.6-26.5-51.6-59.7s23.3-59.7,51.6-59.7c19.4-0.2,37.5,12.1,44.2,25.5l1.2,2.6h-3.8l-0.5-0.9
					c-6.3-12.6-23.1-23.9-41.1-23.7c-26.6,0-48.2,25.1-48.2,56.2c0,31.1,21.6,56.2,48.2,56.2c26.4,0,47.8-25.1,47.8-54.4H493.7z"/>
				<g>
					<path class="st2" d="M493.7,341.5c-0.6,0-1.1,0-1.7,0c1.3,1.3,2.5,2.5,3.8,3.8c0-1.2,0-2.3,0-3.5c-1.3,1.3-2.5,2.5-3.8,3.8
						c11.9,0,23.7,0,35.6,0c5.1,0,10.2,0,15.3,0c1.1,0-1.8,0-1.8-0.5c0,1.5-0.1,3-0.2,4.5c-0.2,3-0.8,6-1.5,9
						c-1.3,6-3.7,11.6-6.8,16.9c-11.1,19.3-34.3,29.7-55.5,20.7c-22.1-9.4-32.5-34.3-31.3-57c1.1-21.3,14.3-42.6,35.1-49.5
						c20.9-6.9,45.8,4.4,54.8,24.2c1.1-1.9,2.2-3.8,3.2-5.6c-1.3,0-2.5,0-3.8,0c1.1,0.6,2.2,1.2,3.2,1.9
						c-11.8-20-35.4-31.1-58.3-24.4c-21.2,6.2-34.7,27.1-37.8,48.1c-3.2,22,4.6,46.2,22.6,59.9c17.1,12.9,40.4,13,57.4-0.3
						c14.7-11.5,22.5-29.5,22.7-48c0-2-1.7-3.8-3.8-3.8C525.5,341.5,509.6,341.5,493.7,341.5c-4.8,0-4.8,7.5,0,7.5
						c15.9,0,31.8,0,47.7,0c-1.3-1.3-2.5-2.5-3.8-3.8c-0.3,23.1-14.7,46.1-38.6,50.3c-23.6,4.1-42.6-16.2-48.1-37.2
						c-6-22.7,2.4-49.6,23-61.9c10.5-6.3,23-6.6,34.4-2.8c6.1,2.1,11.7,5.8,16.4,10.2c2.1,2,3.9,4.3,5.5,6.8c1.1,1.7,1.8,4.3,4,4.9
						c1.5,0.4,3.3,0.1,4.8,0.1c3.1,0,4.4-3.1,3.2-5.6c-9.3-20.4-33.1-32.3-55-29.5c-21.6,2.8-37.8,19.6-45,39.3
						c-7.9,21.5-4.2,47.5,9.8,65.6c13,16.8,34.1,25.4,54.9,19.6c15.1-4.1,27-15.8,34.1-29.4c3.7-7.2,6.1-15.2,7-23.2
						c0.6-5,2.4-14.4-5.3-14.4c-16.9,0-33.8,0-50.7,0c-2,0-3.8,1.7-3.8,3.8c0,1.2,0,2.3,0,3.5c0,2,1.7,3.8,3.8,3.8
						c0.6,0,1.1,0,1.7,0C498.6,349,498.6,341.5,493.7,341.5z"/>
				</g>
			</g>
			<g>
				<path class="st2" d="M561.8,402.1l-0.3,1.1h-3.8l1-2.5l49.7-115.9c0.5-1.2,2.6-1.2,3.1,0l49.7,115.9l1,2.5h-3.8l-0.3-1.1
					L610,290L561.8,402.1z"/>
				<g>
					<path class="st2" d="M558.2,401.1c-0.1,0.4-0.2,0.7-0.3,1.1c1.2-0.9,2.4-1.8,3.6-2.8c-1.3,0-2.5,0-3.8,0
						c1.2,1.6,2.4,3.2,3.6,4.7c0.6-1.3,1.4-3.3,2.5-5.9c1.9-4.5,3.9-9,5.8-13.5c6-14,12-28,18-42c5.9-13.7,11.7-27.3,17.6-41
						c1.7-4.1,3.5-8.1,5.2-12.2c0.4-0.9,0.7-1.7,1.1-2.6c0.6-1.4-3.7-1.5-3,0.3c8.9,20.6,17.7,41.3,26.6,61.9
						c5.4,12.5,10.8,25.1,16.1,37.6c1.7,3.9,3.4,7.9,5.1,11.8c1.1,2.5,1.8,4.1,2.3,5.5c1.2-1.6,2.4-3.2,3.6-4.7c-1.3,0-2.5,0-3.8,0
						c1.2,0.9,2.4,1.8,3.6,2.8c-1.9-6-4.9-11.7-7.4-17.5c-5.5-12.9-11.1-25.8-16.6-38.7c-8.3-19.3-16.6-38.6-24.9-57.9
						c-1.1-2.5-5.4-2.5-6.5,0c-16.1,37.4-32.1,74.8-48.2,112.2c-1.9,4.4,4.6,8.2,6.5,3.8c16.1-37.4,32.1-74.8,48.2-112.2
						c-2.2,0-4.3,0-6.5,0c8,18.7,16.1,37.4,24.1,56.1c5.5,12.9,11,25.7,16.6,38.6c1.8,4.2,3.6,8.5,5.5,12.7c0.5,1.2,1,2.4,1.6,3.7
						c0.4,1,0.4,1.1,0.5,1.3c0.5,1.6,1.9,2.8,3.6,2.8c1.3,0,2.5,0,3.8,0c2.2,0,4.6-2.4,3.6-4.7c-8.5-20.5-17.5-40.9-26.3-61.3
						c-5.9-13.8-11.9-27.7-17.8-41.5c-1.8-4.3-3.7-8.6-5.5-12.8c-1.2-2.8-1.9-5.4-5.3-6.2c-4.2-1-5.8,2.6-7,5.6
						c-1.7,4.1-3.5,8.1-5.2,12.2c-5.9,13.7-11.7,27.3-17.6,41c-8.9,20.6-17.9,41.2-26.5,61.9c-0.2,0.4-0.3,0.8-0.5,1.2
						c-1,2.3,1.4,4.7,3.6,4.7c1.3,0,2.5,0,3.8,0c1.7,0,3.1-1.2,3.6-2.8c0.1-0.4,0.2-0.7,0.3-1.1
						C566.9,398.5,559.7,396.5,558.2,401.1z"/>
				</g>
			</g>
			<g>
				<path class="st2" d="M685.4,401.4v1.8H682v-1.8V285.6c0-1.8,2.6-2.3,3.3-0.7l49.9,112.3l49.7-112.3c0.7-1.6,3.3-1.1,3.3,0.7
					l0.2,115.9v1.8h-3.4v-1.8l-0.2-107.8l-48,108.5c-0.5,1.2-2.6,1.2-3.1,0l-48.2-108.5V401.4z"/>
				<g>
					<path class="st2" d="M681.7,401.4c0,0.6,0,1.2,0,1.8c1.3-1.3,2.5-2.5,3.8-3.8c-1.1,0-2.3,0-3.4,0c1.3,1.3,2.5,2.5,3.8,3.8
						c0-23.2,0-46.4,0-69.6c0-13.5,0-27,0-40.5c0-2.5,0-5,0-7.5c0-0.9-4.2,0-3.6,1.4c0.1,0.3,0.3,0.6,0.4,0.9c0.6,1.3,1.2,2.7,1.8,4
						c15.9,35.7,31.7,71.4,47.6,107.2c1.1,2.5,5.4,2.5,6.5,0c9.3-21,18.6-42,27.9-63c5.7-12.9,11.5-25.9,17.2-38.8
						c1.4-3.2,2.8-6.4,4.2-9.6c1.3-2.8-3.3,2.1-3.3-2c0,0.9,0,1.8,0,2.7c0.1,38.3,0.2,76.6,0.2,114.8c1.3-1.3,2.5-2.5,3.8-3.8
						c-1.1,0-2.3,0-3.4,0c1.3,1.3,2.5,2.5,3.8,3.8c0-36.5-0.1-73-0.2-109.5c0-3.5-5.4-5.4-7-1.9c-9.5,21.4-19,42.8-28.4,64.2
						c-5.5,12.3-10.9,24.7-16.4,37c-1,2.4-2.1,4.7-3.1,7.1c1.3-3,4.1,1.8,2.9-0.9c-0.6-1.3-1.2-2.6-1.7-3.9
						c-15.3-34.5-30.7-69-46-103.6c-1.6-3.5-7-1.6-7,1.9C681.7,329.6,681.7,365.5,681.7,401.4c0,4.8,7.5,4.8,7.5,0
						c0-35.9,0-71.9,0-107.8c-2.3,0.6-4.7,1.3-7,1.9c9.4,21.2,18.9,42.5,28.3,63.7c5.5,12.4,11,24.7,16.5,37.1
						c1.1,2.5,2.2,5,3.3,7.5c2,4.5,8.3,3.3,10-0.6c15.9-35.9,31.8-71.8,47.7-107.7c-2.3-0.6-4.7-1.3-7-1.9
						c0.1,36.5,0.2,73,0.2,109.5c0,2,1.7,3.8,3.8,3.8c1.1,0,2.3,0,3.4,0c2,0,3.8-1.7,3.8-3.8c0-23.2-0.1-46.4-0.1-69.6
						c0-13.5,0-27-0.1-40.5c0-2.5,0-5,0-7.5c0-6-8.2-7.2-10.5-2c-16.5,37.2-33,74.5-49.4,111.7c2.2,0,4.3,0,6.5,0
						c-9.3-21-18.6-42-28-63c-5.7-12.9-11.5-25.9-17.2-38.8c-1.4-3.2-2.8-6.4-4.3-9.6c-2.3-5.1-10.7-4.8-10.7,1.6
						c0,39.2,0,78.4,0,117.6c0,2,1.7,3.8,3.8,3.8c1.1,0,2.3,0,3.4,0c2,0,3.8-1.7,3.8-3.8c0-0.6,0-1.2,0-1.8
						C689.2,396.6,681.7,396.6,681.7,401.4z"/>
				</g>
			</g>
			<g>
				<path class="st2" d="M903.1,283.8h1.7v3.5h-1.7H826v54.4h56.1h1.7v3.5h-1.7H826v54.4h77.1h1.7v3.5h-1.7h-78.9
					c-1,0-1.7-0.7-1.7-1.8v-56.2v-3.5v-56.2c0-1.1,0.7-1.8,1.7-1.8H903.1z"/>
				<g>
					<path class="st2" d="M903.1,287.6c0.6,0,1.1,0,1.7,0c-1.3-1.3-2.5-2.5-3.8-3.8c0,1.2,0,2.3,0,3.5c1.3-1.3,2.5-2.5,3.8-3.8
						c-26.3,0-52.6,0-78.9,0c-2,0-3.8,1.7-3.8,3.8c0,18.1,0,36.3,0,54.4c0,2,1.7,3.8,3.8,3.8c19.3,0,38.5,0,57.8,0
						c-1.3-1.3-2.5-2.5-3.8-3.8c0,1.2,0,2.3,0,3.5c1.3-1.3,2.5-2.5,3.8-3.8c-19.3,0-38.5,0-57.8,0c-2,0-3.8,1.7-3.8,3.8
						c0,18.1,0,36.3,0,54.4c0,2,1.7,3.8,3.8,3.8c26.3,0,52.6,0,78.9,0c-1.3-1.3-2.5-2.5-3.8-3.8c0,1.2,0,2.3,0,3.5
						c1.3-1.3,2.5-2.5,3.8-3.8c-24.5,0-49,0-73.5,0c-1.8,0-3.7,0-5.5,0c-0.4,0-0.9,0-1.3,0c-1.4,0,1.8,3.1,1.8,1.6
						c0-4.9,0-9.9,0-14.8c0-13.4,0-26.8,0-40.2c0-9.3,0-18.6,0-28c0-7.7,0-15.5,0-23.2c0-2.4,0-4.8,0-7.2c0-3.7,0-0.2-1.8-0.2
						c25.1,0,50.1,0,75.2,0C900.9,287.6,902,287.6,903.1,287.6c4.8,0,4.8-7.5,0-7.5c-24.5,0-49,0-73.5,0c-3.4,0-8.1-0.8-10.1,2.7
						c-1.8,3.1-0.7,8.9-0.7,12.2c0,14.4,0,28.9,0,43.3c0,21,0,41.9,0,62.9c0,4.8,3.8,5.9,7.7,5.9c5.3,0,10.6,0,15.9,0
						c15.6,0,31.1,0,46.7,0c5.3,0,10.5,0,15.8,0c2,0,3.8-1.7,3.8-3.8c0-1.2,0-2.3,0-3.5c0-2-1.7-3.8-3.8-3.8c-26.3,0-52.6,0-78.9,0
						c1.3,1.3,2.5,2.5,3.8,3.8c0-18.1,0-36.3,0-54.4c-1.3,1.3-2.5,2.5-3.8,3.8c19.3,0,38.5,0,57.8,0c2,0,3.8-1.7,3.8-3.8
						c0-1.2,0-2.3,0-3.5c0-2-1.7-3.8-3.8-3.8c-19.3,0-38.5,0-57.8,0c1.3,1.3,2.5,2.5,3.8,3.8c0-18.1,0-36.3,0-54.4
						c-1.3,1.3-2.5,2.5-3.8,3.8c26.3,0,52.6,0,78.9,0c2,0,3.8-1.7,3.8-3.8c0-1.2,0-2.3,0-3.5c0-2-1.7-3.8-3.8-3.8
						c-0.6,0-1.1,0-1.7,0C898.3,280.1,898.3,287.6,903.1,287.6z"/>
				</g>
			</g>
			<g>
				<path class="st2" d="M1000.7,314.5v1.8h-3.4v-1.8c0-15.3-15.4-27.2-34.1-27.2c-18.7,0-34.1,11.9-34.1,27.2
					c0,27,75.4,27,75.3,57.9c0,16.3-18.3,30.7-41.1,30.7c-23.3,0-41.1-14.2-41.1-30.7v-1.8h3.4v1.8c0,15.1,17.1,27.2,37.7,27.2
					c20.1,0,37.7-12.3,37.7-27.2c0-27.6-75.1-27.2-75.3-57.9c0-16.7,16.5-30.7,37.5-30.7S1000.7,297.9,1000.7,314.5z"/>
				<g>
					<path class="st2" d="M997,314.5c0,0.6,0,1.2,0,1.8c1.3-1.3,2.5-2.5,3.8-3.8c-1.1,0-2.3,0-3.4,0c1.3,1.3,2.5,2.5,3.8,3.8
						c0-22.9-23.1-34.8-43.8-32.3c-10.7,1.3-20.5,6.5-27,15.1c-4.7,6.2-6.7,15.6-3.3,22.8c5.7,12.2,22.2,17.3,33.7,21.8
						c12.3,4.8,30.1,9.3,37.7,21.2c3.7,5.8,2.1,13-1.3,18.6c-5.4,8.8-16,13.4-25.7,15.2c-18.8,3.6-45.6-5.8-45.6-28.1
						c-1.3,1.3-2.5,2.5-3.8,3.8c1.1,0,2.3,0,3.4,0c-1.3-1.3-2.5-2.5-3.8-3.8c0,23,24.5,33.6,44.6,32.6c17.4-0.8,44-15,37.5-36.3
						c-4-13-20.8-18.7-32.1-23.1c-7.6-3-15.2-5.7-22.6-9.1c-6-2.8-12.5-6.2-16.6-11.5c-3.9-5.2-3.6-11.2-1.4-17.1
						c3.3-9,12.6-14.7,21.4-17.2C970.3,283.8,996.4,293.1,997,314.5c0.1,4.8,7.6,4.8,7.5,0c-0.6-23.4-24.8-36-45.8-34.2
						c-19.2,1.6-40.3,17.5-36.2,38.9c2.7,13.9,19.2,20.8,30.8,25.5c13.1,5.4,29.8,9,40.2,19.3c4,4,4.5,9,2.7,14.3
						c-3.2,9.3-14.3,14.4-23.1,16.6c-16.9,4.1-43.7-3.2-43.7-24.2c0-2-1.7-3.8-3.8-3.8c-1.1,0-2.3,0-3.4,0c-2,0-3.8,1.7-3.8,3.8
						c0,22.5,21.4,34.7,41.7,36.1c20.5,1.5,46.3-10.4,48.1-33.2c1.1-14.6-13.1-23.4-24.6-28.7c-14-6.5-29.6-10.1-42.5-18.6
						c-3.6-2.4-7.5-5.9-8-10.4c-1.1-9.6,6.4-17.2,14.2-21.2c17.5-9,46.4-0.8,46.4,21.7c0,2,1.7,3.8,3.8,3.8c1.1,0,2.3,0,3.4,0
						c2,0,3.8-1.7,3.8-3.8c0-0.6,0-1.2,0-1.8C1004.5,309.7,997,309.7,997,314.5z"/>
				</g>
			</g>
		</g>
	</g>
</g>
</svg>
